<?xml version="1.0" encoding="utf-8" standalone="no"?>
<svg width="196" height="196" viewBox="0 0 196 196" version="1.1"
xml:space="preserve"
style="clip-rule:evenodd;fill-rule:evenodd;stroke-linejoin:round;stroke-miterlimit:2"
id="svg1232" xmlns="http://www.w3.org/2000/svg"
xmlns:svg="http://www.w3.org/2000/svg">
<defs id="defs1236" />
<rect x="-1.2011163e-06" y="4.9856418e-08" width="196" height="196"
style="clip-rule:evenodd;display:inline;fill:#1b73ba;fill-rule:evenodd;stroke:#9dcb3b;stroke-width:32.0001;stroke-linejoin:round;stroke-miterlimit:2;stroke-dasharray:none;stroke-opacity:1"
id="rect1109" />
<g id="g1326">
<path style="clip-rule:evenodd;opacity:1;fill:#42ade2;fill-opacity:1;fill-rule:evenodd;stroke:#42ade2;stroke-width:2;stroke-linecap:round;stroke-linejoin:round;stroke-miterlimit:2;stroke-dasharray:none;stroke-opacity:1"
d="m 48,148 20,20" id="path20357" />
<path style="clip-rule:evenodd;opacity:1;fill:#42ade2;fill-opacity:1;fill-rule:evenodd;stroke:#42ade2;stroke-width:2;stroke-linecap:round;stroke-linejoin:round;stroke-miterlimit:2;stroke-dasharray:none;stroke-opacity:1"
d="M 68,128 48,108" id="path20359" />
<path style="clip-rule:evenodd;opacity:1;fill:#42ade2;fill-opacity:1;fill-rule:evenodd;stroke:#42ade2;stroke-width:2;stroke-linecap:round;stroke-linejoin:round;stroke-miterlimit:2;stroke-dasharray:none;stroke-opacity:1"
d="m 48,128 20,20" id="path20361" />
<path style="clip-rule:evenodd;fill:none;fill-rule:evenodd;stroke:#42ade2;stroke-width:2;stroke-linecap:butt;stroke-linejoin:miter;stroke-miterlimit:2;stroke-dasharray:none;stroke-opacity:1"
d="m 47.999998,47.999999 -20,-19.999998" id="path14731" />
<path style="clip-rule:evenodd;fill:none;fill-rule:evenodd;stroke:#42ade2;stroke-width:2;stroke-linecap:butt;stroke-linejoin:miter;stroke-miterlimit:2;stroke-dasharray:none;stroke-opacity:1"
d="m 47.999998,47.999999 20,-19.999998" id="path14733" />
<path style="clip-rule:evenodd;fill:#42ade2;fill-opacity:1;fill-rule:evenodd;stroke:#42ade2;stroke-width:2;stroke-linecap:round;stroke-linejoin:round;stroke-miterlimit:2;stroke-dasharray:none;stroke-opacity:1"
d="M 27.999998,47.999999 47.999998,68" id="path15488" />
<path style="clip-rule:evenodd;fill:#42ade2;fill-opacity:1;fill-rule:evenodd;stroke:#42ade2;stroke-width:2;stroke-linecap:round;stroke-linejoin:round;stroke-miterlimit:2;stroke-dasharray:none;stroke-opacity:1"
d="M 47.999998,88.000001 27.999998,68" id="path15490" />
<path style="clip-rule:evenodd;fill:#42ade2;fill-opacity:1;fill-rule:evenodd;stroke:#42ade2;stroke-width:2;stroke-linecap:round;stroke-linejoin:round;stroke-miterlimit:2;stroke-dasharray:none;stroke-opacity:1"
d="m 27.999998,108 20,-19.999999" id="path15492" />
<path style="clip-rule:evenodd;fill:#42ade2;fill-opacity:1;fill-rule:evenodd;stroke:#42ade2;stroke-width:2;stroke-linecap:round;stroke-linejoin:round;stroke-miterlimit:2;stroke-dasharray:none;stroke-opacity:1"
d="m 27.999998,148 20,-20" id="path15502" />
<path style="clip-rule:evenodd;fill:#42ade2;fill-opacity:1;fill-rule:evenodd;stroke:#42ade2;stroke-width:2;stroke-linecap:round;stroke-linejoin:round;stroke-miterlimit:2;stroke-dasharray:none;stroke-opacity:1"
d="m 47.999998,108 -20,20" id="path15504" />
<path style="clip-rule:evenodd;opacity:1;fill:#42ade2;fill-opacity:1;fill-rule:evenodd;stroke:#42ade2;stroke-width:2;stroke-linecap:round;stroke-linejoin:round;stroke-miterlimit:2;stroke-dasharray:none;stroke-opacity:1"
d="M 68,48 88,28" id="path20192" />
<path style="clip-rule:evenodd;opacity:1;fill:#42ade2;fill-opacity:1;fill-rule:evenodd;stroke:#42ade2;stroke-width:2;stroke-linecap:round;stroke-linejoin:round;stroke-miterlimit:2;stroke-dasharray:none;stroke-opacity:1"
d="M 48,68 68,48" id="path20194" />
<path style="clip-rule:evenodd;opacity:1;fill:#42ade2;fill-opacity:1;fill-rule:evenodd;stroke:#42ade2;stroke-width:2;stroke-linecap:round;stroke-linejoin:round;stroke-miterlimit:2;stroke-dasharray:none;stroke-opacity:1"
d="M 48,108 68,88" id="path20196" />
<path style="clip-rule:evenodd;opacity:1;fill:#42ade2;fill-opacity:1;fill-rule:evenodd;stroke:#42ade2;stroke-width:2;stroke-linecap:round;stroke-linejoin:round;stroke-miterlimit:2;stroke-dasharray:none;stroke-opacity:1"
d="m 28,148 20,20" id="path20225" />
<path style="clip-rule:evenodd;opacity:1;fill:#42ade2;fill-opacity:1;fill-rule:evenodd;stroke:#42ade2;stroke-width:2;stroke-linecap:round;stroke-linejoin:round;stroke-miterlimit:2;stroke-dasharray:none;stroke-opacity:1"
d="M 108,48 88,28" id="path20227" />
<path style="clip-rule:evenodd;opacity:1;fill:#42ade2;fill-opacity:1;fill-rule:evenodd;stroke:#42ade2;stroke-width:2;stroke-linecap:round;stroke-linejoin:round;stroke-miterlimit:2;stroke-dasharray:none;stroke-opacity:1"
d="M 128,28 108,48" id="path20229" />
<path style="clip-rule:evenodd;opacity:1;fill:#42ade2;fill-opacity:1;fill-rule:evenodd;stroke:#42ade2;stroke-width:2;stroke-linecap:round;stroke-linejoin:round;stroke-miterlimit:2;stroke-dasharray:none;stroke-opacity:1"
d="M 128,48 148,28" id="path20231" />
<path style="clip-rule:evenodd;opacity:1;fill:#42ade2;fill-opacity:1;fill-rule:evenodd;stroke:#42ade2;stroke-width:2;stroke-linecap:round;stroke-linejoin:round;stroke-miterlimit:2;stroke-dasharray:none;stroke-opacity:1"
d="M 148,48 168,28" id="path20233" />
<path style="clip-rule:evenodd;opacity:1;fill:#42ade2;fill-opacity:1;fill-rule:evenodd;stroke:#42ade2;stroke-width:2;stroke-linecap:round;stroke-linejoin:round;stroke-miterlimit:2;stroke-dasharray:none;stroke-opacity:1"
d="m 148,48 20,20" id="path20235" />
<path style="clip-rule:evenodd;opacity:1;fill:#42ade2;fill-opacity:1;fill-rule:evenodd;stroke:#42ade2;stroke-width:2;stroke-linecap:round;stroke-linejoin:round;stroke-miterlimit:2;stroke-dasharray:none;stroke-opacity:1"
d="m 128,48 20,20" id="path20237" />
<path style="clip-rule:evenodd;opacity:1;fill:#42ade2;fill-opacity:1;fill-rule:evenodd;stroke:#42ade2;stroke-width:2;stroke-linecap:round;stroke-linejoin:round;stroke-miterlimit:2;stroke-dasharray:none;stroke-opacity:1"
d="m 108,68 20,20" id="path20239" />
<path style="clip-rule:evenodd;opacity:1;fill:#42ade2;fill-opacity:1;fill-rule:evenodd;stroke:#42ade2;stroke-width:2;stroke-linecap:round;stroke-linejoin:round;stroke-miterlimit:2;stroke-dasharray:none;stroke-opacity:1"
d="m 108,88 20,20" id="path20241" />
<path style="clip-rule:evenodd;opacity:1;fill:#42ade2;fill-opacity:1;fill-rule:evenodd;stroke:#42ade2;stroke-width:2;stroke-linecap:round;stroke-linejoin:round;stroke-miterlimit:2;stroke-dasharray:none;stroke-opacity:1"
d="M 168,68 148,88" id="path20245" />
<path style="clip-rule:evenodd;opacity:1;fill:#42ade2;fill-opacity:1;fill-rule:evenodd;stroke:#42ade2;stroke-width:2;stroke-linecap:round;stroke-linejoin:round;stroke-miterlimit:2;stroke-dasharray:none;stroke-opacity:1"
d="m 168,88 -20,20" id="path20247" />
<path style="clip-rule:evenodd;opacity:1;fill:#42ade2;fill-opacity:1;fill-rule:evenodd;stroke:#42ade2;stroke-width:2;stroke-linecap:round;stroke-linejoin:round;stroke-miterlimit:2;stroke-dasharray:none;stroke-opacity:1"
d="m 128,88 20,20" id="path20249" />
<path style="clip-rule:evenodd;opacity:1;fill:#42ade2;fill-opacity:1;fill-rule:evenodd;stroke:#42ade2;stroke-width:2;stroke-linecap:round;stroke-linejoin:round;stroke-miterlimit:2;stroke-dasharray:none;stroke-opacity:1"
d="m 148,108 20,20" id="path20251" />
<path style="clip-rule:evenodd;opacity:1;fill:#42ade2;fill-opacity:1;fill-rule:evenodd;stroke:#42ade2;stroke-width:2;stroke-linecap:round;stroke-linejoin:round;stroke-miterlimit:2;stroke-dasharray:none;stroke-opacity:1"
d="m 148,128 20,20" id="path20253" />
<path style="clip-rule:evenodd;opacity:1;fill:#42ade2;fill-opacity:1;fill-rule:evenodd;stroke:#42ade2;stroke-width:2;stroke-linecap:round;stroke-linejoin:round;stroke-miterlimit:2;stroke-dasharray:none;stroke-opacity:1"
d="m 148,148 -20,20" id="path20257" />
<path style="clip-rule:evenodd;opacity:1;fill:#42ade2;fill-opacity:1;fill-rule:evenodd;stroke:#42ade2;stroke-width:2;stroke-linecap:round;stroke-linejoin:round;stroke-miterlimit:2;stroke-dasharray:none;stroke-opacity:1"
d="m 168,148 -20,20" id="path20255" />
<rect style="clip-rule:evenodd;fill:#42ade2;fill-opacity:1;fill-rule:evenodd;stroke:#42ade2;stroke-width:2;stroke-linecap:round;stroke-linejoin:round;stroke-miterlimit:2;stroke-dasharray:none;stroke-opacity:1"
id="rect4611-3-4" width="13.999999" height="14" x="41.000004"
y="41" />
<rect style="clip-rule:evenodd;fill:#42ade2;fill-opacity:1;fill-rule:evenodd;stroke:#42ade2;stroke-width:2;stroke-linecap:round;stroke-linejoin:round;stroke-miterlimit:2;stroke-dasharray:none;stroke-opacity:1"
id="rect4611-3-4-0" width="13.999999" height="14" x="61"
y="21.000002" />
<rect style="clip-rule:evenodd;fill:#42ade2;fill-opacity:1;fill-rule:evenodd;stroke:#42ade2;stroke-width:2;stroke-linecap:round;stroke-linejoin:round;stroke-miterlimit:2;stroke-dasharray:none;stroke-opacity:1"
id="rect4611-3-4-3-0" width="13.999999" height="14" x="41"
y="81" />
<rect style="clip-rule:evenodd;fill:#42ade2;fill-opacity:1;fill-rule:evenodd;stroke:#42ade2;stroke-width:2;stroke-linecap:round;stroke-linejoin:round;stroke-miterlimit:2;stroke-dasharray:none;stroke-opacity:1"
id="rect4611-3-4-3-0-6-6" width="13.999999" height="14"
x="21.000002" y="121" />
<rect style="clip-rule:evenodd;fill:#42ade2;fill-opacity:1;fill-rule:evenodd;stroke:#42ade2;stroke-width:2;stroke-linecap:round;stroke-linejoin:round;stroke-miterlimit:2;stroke-dasharray:none;stroke-opacity:1"
id="rect4611-3-4-3-2-0-9-66" width="13.999999" height="14" x="161"
y="61" />
<rect style="clip-rule:evenodd;fill:#42ade2;fill-opacity:1;fill-rule:evenodd;stroke:#42ade2;stroke-width:2;stroke-linecap:round;stroke-linejoin:round;stroke-miterlimit:2;stroke-dasharray:none;stroke-opacity:1"
id="rect4611-3-4-3-2-0-9-2-8" width="13.999999" height="14"
x="141.00002" y="81" />
<rect style="clip-rule:evenodd;fill:#42ade2;fill-opacity:1;fill-rule:evenodd;stroke:#42ade2;stroke-width:2;stroke-linecap:round;stroke-linejoin:round;stroke-miterlimit:2;stroke-dasharray:none;stroke-opacity:1"
id="rect4611-3-4-3-2-0-9-95-7-1" width="13.999999" height="14"
x="121" y="21.000002" />
<rect style="clip-rule:evenodd;fill:#42ade2;fill-opacity:1;fill-rule:evenodd;stroke:#42ade2;stroke-width:2;stroke-linecap:round;stroke-linejoin:round;stroke-miterlimit:2;stroke-dasharray:none;stroke-opacity:1"
id="rect4611-3-4-3-2-0-3-0-3" width="13.999999" height="14" x="161"
y="121" />
<rect style="clip-rule:evenodd;fill:#42ade2;fill-opacity:1;fill-rule:evenodd;stroke:#42ade2;stroke-width:2;stroke-linecap:round;stroke-linejoin:round;stroke-miterlimit:2;stroke-dasharray:none;stroke-opacity:1"
id="rect4611-3-4-3-2-0-3-0-3-6" width="13.999999" height="14"
x="141" y="141" />
<rect style="clip-rule:evenodd;fill:#42ade2;fill-opacity:1;fill-rule:evenodd;stroke:#42ade2;stroke-width:2;stroke-linecap:round;stroke-linejoin:round;stroke-miterlimit:2;stroke-dasharray:none;stroke-opacity:1"
id="rect4611-3-4-3-2-0-9-2-8-5" width="13.999999" height="14"
x="101" y="81" />
<rect style="clip-rule:evenodd;fill:#42ade2;fill-opacity:1;fill-rule:evenodd;stroke:#42ade2;stroke-width:2;stroke-linecap:round;stroke-linejoin:round;stroke-miterlimit:2;stroke-dasharray:none;stroke-opacity:1"
id="rect4611-3-4-3-2-0-9-4-1-4" width="13.999999" height="14"
x="101" y="41" />
<rect style="clip-rule:evenodd;fill:#42ade2;fill-opacity:1;fill-rule:evenodd;stroke:#42ade2;stroke-width:2;stroke-linecap:round;stroke-linejoin:round;stroke-miterlimit:2;stroke-dasharray:none;stroke-opacity:1"
id="rect4611-3-4-3-2-0-3-4" width="13.999999" height="14" x="121"
y="161" />
<rect style="clip-rule:evenodd;fill:#42ade2;fill-opacity:1;fill-rule:evenodd;stroke:#42ade2;stroke-width:2;stroke-linecap:round;stroke-linejoin:round;stroke-miterlimit:2;stroke-dasharray:none;stroke-opacity:1"
id="rect4611-3-4-3-2-0-3-4-3" width="13.999999" height="14" x="61"
y="161" />
<rect style="clip-rule:evenodd;fill:#42ade2;fill-opacity:1;fill-rule:evenodd;stroke:#42ade2;stroke-width:2;stroke-linecap:round;stroke-linejoin:round;stroke-miterlimit:2;stroke-dasharray:none;stroke-opacity:1"
id="rect4611-0" width="10" height="10" x="23" y="63.000004" />
<rect style="clip-rule:evenodd;fill:#42ade2;fill-opacity:1;fill-rule:evenodd;stroke:#42ade2;stroke-width:2;stroke-linecap:round;stroke-linejoin:round;stroke-miterlimit:2;stroke-dasharray:none;stroke-opacity:1"
id="rect4611-0-7" width="10" height="10" x="23" y="22.999998" />
<rect style="clip-rule:evenodd;fill:#42ade2;fill-opacity:1;fill-rule:evenodd;stroke:#42ade2;stroke-width:2;stroke-linecap:round;stroke-linejoin:round;stroke-miterlimit:2;stroke-dasharray:none;stroke-opacity:1"
id="rect4611-0-6-6" width="10" height="10" x="23" y="103.00001" />
<rect style="clip-rule:evenodd;fill:#42ade2;fill-opacity:1;fill-rule:evenodd;stroke:#42ade2;stroke-width:2;stroke-linecap:round;stroke-linejoin:round;stroke-miterlimit:2;stroke-dasharray:none;stroke-opacity:1"
id="rect4611-0-6-6-9" width="10" height="10" x="43.000004"
y="103.00001" />
<rect style="clip-rule:evenodd;fill:#42ade2;fill-opacity:1;fill-rule:evenodd;stroke:#42ade2;stroke-width:2;stroke-linecap:round;stroke-linejoin:round;stroke-miterlimit:2;stroke-dasharray:none;stroke-opacity:1"
id="rect4611-0-6-6-88-4-3" width="10" height="10" x="43" y="163" />
<rect style="clip-rule:evenodd;fill:#42ade2;fill-opacity:1;fill-rule:evenodd;stroke:#42ade2;stroke-width:2;stroke-linecap:round;stroke-linejoin:round;stroke-miterlimit:2;stroke-dasharray:none;stroke-opacity:1"
id="rect4611-0-6-6-88-4-3-5" width="10" height="10" x="43"
y="143" />
<rect style="clip-rule:evenodd;fill:#42ade2;fill-opacity:1;fill-rule:evenodd;stroke:#42ade2;stroke-width:2;stroke-linecap:round;stroke-linejoin:round;stroke-miterlimit:2;stroke-dasharray:none;stroke-opacity:1"
id="rect4611-0-6-6-88-4-3-1" width="10" height="10" x="63"
y="144" />
<rect style="clip-rule:evenodd;fill:#42ade2;fill-opacity:1;fill-rule:evenodd;stroke:#42ade2;stroke-width:2;stroke-linecap:round;stroke-linejoin:round;stroke-miterlimit:2;stroke-dasharray:none;stroke-opacity:1"
id="rect4611-0-6-6-88-3" width="10" height="10" x="23" y="143" />

<rect style="clip-rule:evenodd;fill:#42ade2;fill-opacity:1;fill-rule:evenodd;stroke:#42ade2;stroke-width:2;stroke-linecap:round;stroke-linejoin:round;stroke-miterlimit:2;stroke-dasharray:none;stroke-opacity:1"
id="rect4611-0-6-6-88-3-7-3-7-5" width="10" height="10" x="123"
y="83" />
<rect style="clip-rule:evenodd;fill:#42ade2;fill-opacity:1;fill-rule:evenodd;stroke:#42ade2;stroke-width:2;stroke-linecap:round;stroke-linejoin:round;stroke-miterlimit:2;stroke-dasharray:none;stroke-opacity:1"
id="rect4611-0-6-6-88-3-7-3-5" width="10" height="10" x="163"
y="143" />
<rect style="clip-rule:evenodd;fill:#42ade2;fill-opacity:1;fill-rule:evenodd;stroke:#42ade2;stroke-width:2;stroke-linecap:round;stroke-linejoin:round;stroke-miterlimit:2;stroke-dasharray:none;stroke-opacity:1"
id="rect4611-0-6-6-88-3-7-3-5-9" width="10" height="10" x="144"
y="123" />
<rect style="clip-rule:evenodd;fill:#42ade2;fill-opacity:1;fill-rule:evenodd;stroke:#42ade2;stroke-width:2;stroke-linecap:round;stroke-linejoin:round;stroke-miterlimit:2;stroke-dasharray:none;stroke-opacity:1"
id="rect4611-0-6-6-88-3-7-3-5-8" width="10" height="10" x="163"
y="83" />
<rect style="clip-rule:evenodd;fill:#42ade2;fill-opacity:1;fill-rule:evenodd;stroke:#42ade2;stroke-width:2;stroke-linecap:round;stroke-linejoin:round;stroke-miterlimit:2;stroke-dasharray:none;stroke-opacity:1"
id="rect4611-0-6-6-88-3-7-3-5-8-9" width="10" height="10" x="143"
y="63.000004" />
<rect style="clip-rule:evenodd;fill:#42ade2;fill-opacity:1;fill-rule:evenodd;stroke:#42ade2;stroke-width:2;stroke-linecap:round;stroke-linejoin:round;stroke-miterlimit:2;stroke-dasharray:none;stroke-opacity:1"
id="rect4611-0-6-6-88-3-7-3-5-8-9-4" width="10" height="10" x="163"
y="22.999998" />
<rect style="clip-rule:evenodd;fill:#42ade2;fill-opacity:1;fill-rule:evenodd;stroke:#42ade2;stroke-width:2;stroke-linecap:round;stroke-linejoin:round;stroke-miterlimit:2;stroke-dasharray:none;stroke-opacity:1"
id="rect4611-0-6-6-88-3-7-3-5-8-9-5" width="10" height="10" x="143"
y="43" />
<rect style="clip-rule:evenodd;fill:#42ade2;fill-opacity:1;fill-rule:evenodd;stroke:#42ade2;stroke-width:2;stroke-linecap:round;stroke-linejoin:round;stroke-miterlimit:2;stroke-dasharray:none;stroke-opacity:1"
id="rect4611-0-6-6-7" width="10" height="10" x="63.000004"
y="83" />
<rect style="clip-rule:evenodd;fill:#42ade2;fill-opacity:1;fill-rule:evenodd;stroke:#42ade2;stroke-width:2;stroke-linecap:round;stroke-linejoin:round;stroke-miterlimit:2;stroke-dasharray:none;stroke-opacity:1"
id="rect4611-0-6-6-7-4-2-1" width="10" height="10" x="83"
y="22.999998" />
<rect style="clip-rule:evenodd;fill:#42ade2;fill-opacity:1;fill-rule:evenodd;stroke:#42ade2;stroke-width:2;stroke-linecap:round;stroke-linejoin:round;stroke-miterlimit:2;stroke-dasharray:none;stroke-opacity:1"
id="rect4611-0-6-6-7-4-9" width="10" height="10" x="103"
y="63.000004" />
<rect style="clip-rule:evenodd;fill:#42ade2;fill-opacity:1;fill-rule:evenodd;stroke:#42ade2;stroke-width:2;stroke-linecap:round;stroke-linejoin:round;stroke-miterlimit:2;stroke-dasharray:none;stroke-opacity:1"
id="rect4665-2" width="5.9999995" height="5.9999995" x="45"
y="65" />
<rect style="clip-rule:evenodd;fill:#42ade2;fill-opacity:1;fill-rule:evenodd;stroke:#42ade2;stroke-width:2;stroke-linecap:round;stroke-linejoin:round;stroke-miterlimit:2;stroke-dasharray:none;stroke-opacity:1"
id="rect4665-2-04" width="5.9999995" height="5.9999995" x="65"
y="45" />
<rect style="clip-rule:evenodd;fill:#42ade2;fill-opacity:1;fill-rule:evenodd;stroke:#42ade2;stroke-width:2;stroke-linecap:round;stroke-linejoin:round;stroke-miterlimit:2;stroke-dasharray:none;stroke-opacity:1"
id="rect4665-2-0" width="5.9999995" height="5.9999995" x="25"
y="45" />
<rect style="clip-rule:evenodd;fill:#42ade2;fill-opacity:1;fill-rule:evenodd;stroke:#42ade2;stroke-width:2;stroke-linecap:round;stroke-linejoin:round;stroke-miterlimit:2;stroke-dasharray:none;stroke-opacity:1"
id="rect4665-2-4" width="5.9999995" height="5.9999995" x="45"
y="125" />
<rect style="clip-rule:evenodd;fill:#42ade2;fill-opacity:1;fill-rule:evenodd;stroke:#42ade2;stroke-width:2;stroke-linecap:round;stroke-linejoin:round;stroke-miterlimit:2;stroke-dasharray:none;stroke-opacity:1"
id="rect4665-2-4-9" width="5.9999995" height="5.9999995" x="65"
y="125" />
<rect style="clip-rule:evenodd;fill:#42ade2;fill-opacity:1;fill-rule:evenodd;stroke:#42ade2;stroke-width:2;stroke-linecap:round;stroke-linejoin:round;stroke-miterlimit:2;stroke-dasharray:none;stroke-opacity:1"
id="rect4665-2-4-1-0-6-6" width="5.9999995" height="5.9999995"
x="145" y="165" />
<rect style="clip-rule:evenodd;fill:#42ade2;fill-opacity:1;fill-rule:evenodd;stroke:#42ade2;stroke-width:2;stroke-linecap:round;stroke-linejoin:round;stroke-miterlimit:2;stroke-dasharray:none;stroke-opacity:1"
id="rect4665-2-4-1-0-6-6-6-9-2" width="5.9999995"
height="5.9999995" x="145" y="105" />
<rect style="clip-rule:evenodd;fill:#42ade2;fill-opacity:1;fill-rule:evenodd;stroke:#42ade2;stroke-width:2;stroke-linecap:round;stroke-linejoin:round;stroke-miterlimit:2;stroke-dasharray:none;stroke-opacity:1"
id="rect4665-2-4-1-0-6-6-6-9-3" width="5.9999995"
height="5.9999995" x="125" y="105" />
<rect style="clip-rule:evenodd;fill:#42ade2;fill-opacity:1;fill-rule:evenodd;stroke:#42ade2;stroke-width:2;stroke-linecap:round;stroke-linejoin:round;stroke-miterlimit:2;stroke-dasharray:none;stroke-opacity:1"
id="rect4665-2-4-1-0-6-6-6-9-3-8" width="5.9999995"
height="5.9999995" x="145" y="25.000002" />
<rect style="clip-rule:evenodd;fill:#42ade2;fill-opacity:1;fill-rule:evenodd;stroke:#42ade2;stroke-width:2;stroke-linecap:round;stroke-linejoin:round;stroke-miterlimit:2;stroke-dasharray:none;stroke-opacity:1"
id="rect4665-2-4-1-0-6-6-6-9-3-8-5" width="5.9999995"
height="5.9999995" x="125" y="45" />
<circle style="clip-rule:evenodd;fill:#42ade2;fill-opacity:1;fill-rule:evenodd;stroke:#42ade2;stroke-width:0;stroke-linecap:round;stroke-linejoin:round;stroke-miterlimit:2;stroke-dasharray:none;stroke-opacity:1"
id="path7175-1" cx="48" cy="28" r="4" />
<circle style="clip-rule:evenodd;fill:#42ade2;fill-opacity:1;fill-rule:evenodd;stroke:#42ade2;stroke-width:0;stroke-linecap:round;stroke-linejoin:round;stroke-miterlimit:2;stroke-dasharray:none;stroke-opacity:1"
id="path7175-1-5" cx="68" cy="72" r="4" />
<circle style="clip-rule:evenodd;fill:#42ade2;fill-opacity:1;fill-rule:evenodd;stroke:#42ade2;stroke-width:0;stroke-linecap:round;stroke-linejoin:round;stroke-miterlimit:2;stroke-dasharray:none;stroke-opacity:1"
id="path7175-1-5-8" cx="168" cy="48" r="4" />
<circle style="clip-rule:evenodd;fill:#42ade2;fill-opacity:1;fill-rule:evenodd;stroke:#42ade2;stroke-width:0;stroke-linecap:round;stroke-linejoin:round;stroke-miterlimit:2;stroke-dasharray:none;stroke-opacity:1"
id="path7175-1-5-8-8" cx="107.99999" cy="28" r="4" />
<circle style="clip-rule:evenodd;fill:#42ade2;fill-opacity:1;fill-rule:evenodd;stroke:#42ade2;stroke-width:0;stroke-linecap:round;stroke-linejoin:round;stroke-miterlimit:2;stroke-dasharray:none;stroke-opacity:1"
id="path7175-1-5-8-0" cx="168" cy="108" r="4" />
<circle style="clip-rule:evenodd;fill:#42ade2;fill-opacity:1;fill-rule:evenodd;stroke:#42ade2;stroke-width:0;stroke-linecap:round;stroke-linejoin:round;stroke-miterlimit:2;stroke-dasharray:none;stroke-opacity:1"
id="path7175-1-5-8-0-3" cx="128" cy="68" r="4" />
<circle style="clip-rule:evenodd;fill:#42ade2;fill-opacity:1;fill-rule:evenodd;stroke:#42ade2;stroke-width:0;stroke-linecap:round;stroke-linejoin:round;stroke-miterlimit:2;stroke-dasharray:none;stroke-opacity:1"
id="path7175-1-5-8-0-8" cx="168" cy="168" r="4" />
<circle style="clip-rule:evenodd;fill:#42ade2;fill-opacity:1;fill-rule:evenodd;stroke:#42ade2;stroke-width:0;stroke-linecap:round;stroke-linejoin:round;stroke-miterlimit:2;stroke-dasharray:none;stroke-opacity:1"
id="path7175-1-5-8-0-8-4-5" cx="84" cy="152" r="4" />
<circle style="clip-rule:evenodd;fill:#42ade2;fill-opacity:1;fill-rule:evenodd;stroke:#42ade2;stroke-width:0;stroke-linecap:round;stroke-linejoin:round;stroke-miterlimit:2;stroke-dasharray:none;stroke-opacity:1"
id="path7175-1-5-8-0-9-3" cx="28" cy="168" r="4" />
<circle style="clip-rule:evenodd;fill:#42ade2;fill-opacity:1;fill-rule:evenodd;stroke:#42ade2;stroke-width:0;stroke-linecap:round;stroke-linejoin:round;stroke-miterlimit:2;stroke-dasharray:none;stroke-opacity:1"
id="path7175-1-5-4" cx="28.000002" cy="87.999992" r="4" />
</g>
<g style="clip-rule:evenodd;display:inline;fill-rule:evenodd;stroke-linejoin:round;stroke-miterlimit:2"
id="g2026">
<path d="m 93.89,56.7455 c 0.3613,1.364 0.6972,3.5204 0.7866,4.9937 0.1045,1.7209 -0.2862,3.8905 -0.6701,5.571 -0.8455,3.6977 -2.9277,7.9884 -3.4174,10.4298 -0.3273,1.6318 -0.4223,4.1782 -0.5488,5.4404 -0.1637,1.6251 -0.0926,6.8581 -0.069,7.8662 0.0288,1.3134 -0.0744,7.4991 2.3354,10.0504 0.6711,0.71 5.4717,2.093 6.0459,2.191 0.2936,0.052 6.9034,2.638 7.8834,3.072 1.47,0.65 4.17,2.035 5.454,2.891 0.614,0.409 1.326,0.6 1.9,1.066 0.377,0.288 3.653,2.336 4.047,2.596 1.11,0.81 5.431,4.056 6.442,4.919 0.524,0.448 0.998,0.957 1.511,1.423 0.287,0.26 0.593,0.496 0.904,0.726 0.042,0.037 0.089,0.063 0.142,0.078 0.052,0.015 0.107,0.017 0.161,0.006 0.053,-0.012 0.102,-0.034 0.145,-0.067 0.045,-0.034 0.078,-0.076 0.103,-0.127 0.468,-0.779 3.934,-3.153 4.872,-3.747 0.74,-0.47 1.47,-0.871 2.392,-0.787 0.357,0.039 0.672,-0.06 0.948,-0.296 0.728,-0.846 1.788,-1.131 2.632,-1.762 0.712,-0.531 1.508,-0.564 2.325,-0.572 0.085,-0.007 0.17,0 0.252,0.024 0.083,0.025 0.158,0.063 0.226,0.115 0.067,0.054 0.123,0.119 0.169,0.194 0.043,0.076 0.074,0.155 0.088,0.243 0.115,0.383 0.151,0.77 0.111,1.168 -0.042,0.397 -0.156,0.771 -0.344,1.12 -0.243,0.477 -0.303,0.839 0.009,1.327 0.228,0.379 0.329,0.792 0.308,1.235 -0.121,1.701 -0.377,6.426 -0.855,8.357 -0.343,1.381 -1.678,4.243 -2.805,5.842 -0.592,0.84 -3.501,5.163 -4.581,5.859 -1.145,0.702 -2.161,1.56 -3.051,2.58 -0.529,0.635 -0.994,1.314 -1.395,2.042 -0.538,0.92 -1.255,1.655 -2.154,2.206 -0.319,0.216 -0.612,0.469 -0.913,0.71 -0.403,0.321 -0.797,0.653 -1.203,0.973 -0.203,0.16 -0.506,0.252 -0.617,0.458 -0.52,0.981 -1.521,1.215 -2.364,1.7 -0.554,0.317 -1.098,0.659 -1.649,0.984 -0.11,0.065 -0.226,0.117 -0.349,0.152 -0.861,0.247 -1.734,0.455 -2.58,0.743 -0.771,0.282 -1.56,0.459 -2.374,0.529 -0.64,0.043 -1.27,0.203 -1.908,0.281 -0.332,0.028 -0.665,0.035 -1,0.024 -0.083,0 -0.167,-0.041 -0.252,-0.048 -1.107,-0.076 -1.569,0.312 -1.703,1.432 -0.02,0.085 -0.025,0.172 -0.014,0.261 0.283,1.072 -0.173,2.056 -0.341,3.074 -0.065,0.387 -0.089,0.782 -0.123,1.174 -0.027,0.306 0.036,0.649 -0.08,0.911 -0.48,1.086 -0.333,2.243 -0.455,3.369 -0.021,0.436 -0.089,0.865 -0.203,1.288 -0.215,0.65 -0.59,1.131 -1.373,1.174 -0.848,0.045 -1.622,0.535 -2.509,0.473 -0.417,-0.029 -0.727,-0.099 -0.977,-0.473 -0.183,-0.245 -0.397,-0.453 -0.645,-0.628 -0.384,-0.295 -0.419,-0.241 -0.837,0.132 -1.027,0.919 -2.0493,1.867 -3.4755,2.089 -0.246,0.062 -0.4946,0.08 -0.7443,0.053 -1.3281,-0.255 -2.6399,-0.194 -3.9374,0.187 -0.3732,0.096 -0.7446,0.199 -1.1179,0.294 -0.4927,0.124 -0.5218,0.127 -0.6395,-0.424 -0.0723,-0.394 -0.2246,-0.752 -0.4603,-1.073 -0.2338,-0.32 -0.5252,-0.572 -0.8751,-0.753 -0.4309,-0.241 -0.8335,-0.091 -1.25,-0.115 -0.1305,-0.013 -0.232,-0.074 -0.3043,-0.186 -0.0328,-0.124 -0.0092,-0.235 0.0723,-0.334 0.3028,-0.31 0.6089,-0.596 1.0943,-0.609 0.3408,-0.031 0.6757,-0.102 1.0021,-0.211 0.6701,-0.184 1.2067,-0.481 1.0633,-1.356 -0.0506,-0.314 0.1526,-0.494 0.4296,-0.548 0.5688,-0.139 1.1013,-0.05 1.5978,0.27 1.2141,0.787 2.5639,0.926 3.9536,0.696 0.9043,-0.151 1.0511,-0.375 1.1978,-1.263 0.1395,-0.863 0.3243,-1.716 0.5507,-2.561 0.1718,-0.594 0.2098,-1.2 0.1158,-1.814 -0.1339,-0.86 -0.1921,-1.734 -0.2659,-2.604 -0.0601,-0.689 -0.2394,-1.286 -0.9025,-1.624 -0.8408,-0.429 -1.6526,-0.925 -2.5164,-1.291 -0.4913,-0.193 -0.8718,-0.52 -1.1381,-0.987 -0.3987,-0.673 -0.8771,-1.295 -1.2831,-1.966 -0.3003,-0.477 -0.5543,-0.978 -0.759,-1.506 -0.2844,-0.85 -1.8371,-2.923 -3.5115,-4.964 -0.7857,-0.958 -4.0771,-4.428 -4.7448,-5.197 -2.2832,-2.628 -6.2746,-5.041 -10.9983,-10.292 -0.6983,-0.777 -3.5613,-5.06 -4.408,-7.781 -1.3584,-4.366 0.3839,-10.873 1.7537,-13.523 0.4063,-0.786 0.8969,-1.495 1.116,-2.357 0.0724,-0.248 0.9567,-1.938 1.2396,-2.5733 0.6885,-1.5561 1.3458,-3.1293 2.0129,-4.6967 0.1376,-0.3212 2.1233,-5.0044 2.3081,-5.5431 0.3861,-1.0158 2.6825,-5.1015 3.836,-8.7726 1.1307,-3.5997 3.091,-12.4474 3.292,-12.7094 0.1051,-0.1931 0.5942,-3.7456 0.8424,-5.2998 0.049,-0.2415 0.0435,-0.4793 -0.0163,-0.7171 -0.0597,-0.2375 -0.1682,-0.4492 -0.326,-0.6349 -0.8605,-0.9674 -1.8245,-1.7087 -3.2577,-1.3557 -0.9929,0.2452 -2.0185,0.353 -3.0316,0.5182 -1.2643,0.1747 -2.4763,-0.0113 -3.6361,-0.5571 -0.6411,-0.2789 -1.3082,-0.3824 -2.0004,-0.3083 -0.5106,0.0132 -1.0183,-0.015 -1.5255,-0.0836 -0.0852,-0.0055 -0.1667,-0.0393 -0.2519,-0.0445 -0.6809,-0.0021 -1.3587,-0.0539 -2.0329,-0.1544 -0.6088,-0.1336 -1.0578,-0.7017 -1.7666,-0.7073 -0.4492,-0.0058 -0.8604,-0.5944 -0.8187,-1.0235 0.0073,-0.2264 0.0763,-0.4323 0.2028,-0.6162 0.1287,-0.186 0.2954,-0.3178 0.502,-0.3996 0.326,-0.1057 0.6612,-0.1725 1.0017,-0.2004 0.4694,-0.0576 0.9423,-0.0576 1.4081,-0.1259 0.3444,-0.0282 0.672,-0.1174 0.9855,-0.2676 1.078,-0.622 2.1254,-1.2999 3.1979,-1.9351 0.5111,-0.3024 0.877,-0.6705 0.9368,-1.3131 0.1446,-1.5355 0.9364,-2.6886 2.1037,-3.6043 0.2862,-0.1893 0.5613,-0.3992 0.8224,-0.6257 0.2011,-0.2344 1.7853,-0.9294 2.0865,-0.9745 1.7985,-0.2696 3.4107,0.2112 4.9416,0.6383 0.4116,0.115 3.2878,1.1348 5.4083,3.058 1.2453,1.1292 2.1708,3.2672 2.3375,3.7164 0.2608,0.6944 0.5601,1.379 0.7498,2.0963 z m 14.224,76.0005 c -0.013,0.713 -0.183,1.384 -0.508,2.015 -0.156,0.383 -0.428,0.635 -0.815,0.758 -1.232,0.453 -2.369,0.228 -3.426,-0.479 -0.792,-0.535 -1.637,-0.957 -2.534,-1.263 -0.369,-0.125 -0.67,-0.147 -0.9416,0.13 -0.326,0.331 -0.7321,0.379 -1.1507,0.49 -0.596,0.158 -1.0835,-0.08 -1.6198,-0.21 -0.7936,-0.18 -1.5472,-0.47 -2.2593,-0.871 -0.7119,-0.401 -1.3551,-0.896 -1.9278,-1.489 -0.4857,-0.496 -0.9984,-0.962 -1.5383,-1.396 -1.5708,-1.282 -4.8086,-4.758 -5.073,-4.983 -0.5093,-0.477 -3.7634,-4.72 -4.1982,-5.588 -0.0797,-0.156 -0.1701,-0.302 -0.2755,-0.441 -0.0346,-0.047 -0.1284,-0.047 -0.1973,-0.069 -0.0328,0.076 -0.0524,0.156 -0.0616,0.237 0.0092,0.09 0.0325,0.173 0.0708,0.251 0.6956,1.609 1.3964,3.211 2.5835,4.526 0.2283,0.261 0.4401,0.536 0.6359,0.824 0.8862,1.28 4.3085,5.154 4.8432,5.88 1.0198,1.385 2.3335,2.403 3.6254,3.493 1.3226,1.116 2.7775,1.792 4.3306,2.419 1.0397,0.422 1.9798,0.338 2.7717,-0.28 0.787,-0.613 1.426,-0.377 2.131,-0.032 0.306,0.151 0.563,0.479 0.875,0.533 1.047,0.21 2.102,0.336 3.167,0.377 1.274,0.013 2.131,-0.711 2.665,-1.91 0.317,-0.712 0.319,-1.44 0.395,-2.18 0.131,-1.225 0.163,-1.414 1.406,-0.777 0.076,0.043 1.769,0.628 1.834,0.687 0.538,0.468 3.609,0.713 4.028,0.68 0.418,-0.035 0.824,-0.13 1.217,-0.282 0.393,-0.155 1.259,-1.479 1.511,-1.822 0.234,-0.314 0.986,-0.264 1.328,-0.446 0.343,-0.182 0.707,-0.28 1.091,-0.295 0.428,-0.03 0.837,-0.136 1.23,-0.316 1.18,-0.575 1.348,-1.71 1.394,-2.882 0.003,-0.087 -0.138,-0.182 -0.212,-0.273 -0.085,0.08 -0.219,0.147 -0.245,0.243 -0.234,0.886 -0.869,1.341 -1.616,1.744 -0.379,0.227 -0.788,0.338 -1.227,0.334 -0.438,-0.003 -0.846,-0.122 -1.221,-0.354 -0.103,-0.082 -0.217,-0.134 -0.346,-0.154 -0.151,0.009 -0.404,0.076 -0.426,0.167 -0.204,0.822 -1.473,2.202 -2.208,2.503 -1.235,0.505 -3.631,-0.357 -3.865,-0.461 -1.035,-0.51 -2.042,-1.084 -3.091,-1.558 -0.609,-0.245 -3.06,-2.418 -3.879,-2.971 -0.113,-0.074 -0.297,-0.031 -0.45,-0.044 -0.007,0.128 0.008,0.252 0.042,0.375 0.52,1.058 1.004,2.139 1.594,3.155 0.348,0.62 0.53,1.289 0.543,2.005 z m -4.335,28.3 c 0.044,0 1.227,-0.164 1.778,-0.233 0.096,-0.003 0.188,-0.022 0.277,-0.059 0.091,-0.037 0.17,-0.089 0.243,-0.156 0.07,-0.067 0.128,-0.143 0.173,-0.23 0.046,-0.088 0.075,-0.18 0.09,-0.279 0.197,-0.893 0.434,-1.779 0.623,-2.676 0.06,-0.301 0.068,-0.603 0.023,-0.906 -0.197,-1.383 -0.411,-2.762 -0.645,-4.138 -0.05,-0.161 -0.156,-0.263 -0.313,-0.31 -0.549,-0.043 -1.098,-0.048 -1.647,-0.016 -0.207,0.037 -0.353,0.154 -0.444,0.347 -0.281,1.043 -0.517,2.1 -0.77,3.149 -0.031,0.175 -0.085,0.338 -0.161,0.496 -0.569,0.97 -0.635,2.086 -0.819,3.15 -0.23,1.337 0.284,1.876 1.592,1.861 z"
style="clip-rule:evenodd;display:inline;fill:#ffffff;fill-rule:nonzero;stroke:none;stroke-width:1.15818;stroke-linecap:round;stroke-linejoin:round;stroke-miterlimit:2;stroke-dasharray:none;stroke-opacity:1"
id="path2022" />
<path d="m 80.4743,54.3988 c 0.0683,0.2958 1.17,-0.3937 1.17,-0.3937 0,0 -1.3263,-1.0986 -1.8402,-1.3695 -0.4967,-0.2617 -1.3474,-0.5212 -1.6912,-0.6 -0.1321,-0.0303 -0.3417,0.0046 -0.3705,0.1275 -0.0263,0.1112 -0.0858,0.4541 -0.087,0.5176 -0.0101,0.5283 -0.1483,1.5275 0.4888,1.6627 0.5788,0.0668 0.8984,-0.5789 1.1295,-1.4697 0.7618,0.2458 1.3596,0.6031 1.716,1.1246 z"
style="clip-rule:evenodd;fill:#1b73ba;fill-rule:evenodd;stroke-linejoin:round;stroke-miterlimit:2"
id="path1182" />
<path d="m 73.1585,51.8331 c 0.2948,-2.0256 1.3587,-3.5939 2.9417,-4.8362 0.0497,-0.0389 0.1009,-0.0757 0.153,-0.1106 0.2022,-0.1333 0.3959,-0.2813 0.58,-0.441 l -0.072,0.0723 c 0.2115,-0.1918 0.559,-0.4532 1.0097,-0.687 0.798,-0.4146 2.0317,-0.8614 2.3357,-0.9067 2.1499,-0.3224 4.086,0.1878 5.9163,0.6986 l 0.0019,4e-4 c 0.4823,0.1351 3.8613,1.3219 6.349,3.5779 1.5597,1.4145 2.7499,4.0722 2.9552,4.6262 0.2884,0.7677 0.6117,1.527 0.8216,2.3201 0.3941,1.4886 0.7627,3.8423 0.8602,5.4505 0.1167,1.9247 -0.2954,4.3542 -0.7251,6.2338 -0.8402,3.6769 -2.9169,7.9413 -3.4042,10.3686 -0.3137,1.5637 -0.3934,4.0048 -0.5148,5.214 -0.1575,1.5658 -0.0806,6.607 -0.0576,7.5781 v 0.0031 c 0.016,0.7323 -0.0233,3.0949 0.4355,5.3797 0.2215,1.1041 0.52,2.2137 1.1227,2.9571 0.5525,0.1958 4.4663,1.58 4.8806,1.652 0.0043,0.001 0.0083,0.001 0.0129,0.002 0.3132,0.055 7.3762,2.773 8.4212,3.235 1.565,0.692 4.438,2.173 5.805,3.085 0.662,0.441 1.416,0.674 2.042,1.167 0.442,0.324 3.523,2.242 3.897,2.49 0.03,0.019 0.059,0.04 0.088,0.061 1.135,0.827 5.55,4.148 6.584,5.03 l 0.001,0.001 c 0.359,0.307 0.697,0.641 1.039,0.972 0.005,-0.004 0.011,-0.009 0.017,-0.014 1.31,-1.061 3.314,-2.423 4.011,-2.864 1.046,-0.665 2.11,-1.153 3.365,-1.162 0.765,-0.625 1.676,-0.996 2.458,-1.581 l 0.002,-0.001 c 1.126,-0.84 2.351,-1.019 3.632,-1.035 0.337,-0.017 0.671,0.022 0.993,0.115 0.362,0.105 0.687,0.27 0.985,0.495 0.019,0.015 0.038,0.029 0.056,0.043 0.278,0.224 0.512,0.491 0.7,0.799 0.012,0.019 0.023,0.039 0.034,0.058 0.154,0.269 0.265,0.55 0.33,0.841 0.178,0.644 0.233,1.296 0.166,1.963 l -0.002,0.011 c -0.056,0.539 -0.188,1.053 -0.385,1.519 0.281,0.637 0.404,1.315 0.369,2.034 -0.002,0.017 -0.003,0.035 -0.004,0.052 -0.127,1.782 -0.416,6.729 -0.918,8.752 -0.388,1.565 -1.886,4.816 -3.163,6.627 -0.426,0.605 -2.021,2.962 -3.319,4.568 -0.746,0.923 -1.459,1.621 -1.905,1.909 -0.015,0.01 -0.03,0.019 -0.045,0.029 -0.935,0.573 -1.766,1.272 -2.5,2.11 -0.424,0.512 -0.798,1.059 -1.12,1.645 -0.01,0.018 -0.02,0.037 -0.031,0.055 -0.726,1.24 -1.692,2.235 -2.902,2.989 -0.251,0.174 -0.481,0.377 -0.719,0.568 l -0.005,0.004 c -0.406,0.325 -0.806,0.66 -1.216,0.984 -0.075,0.058 -0.191,0.135 -0.301,0.205 -0.767,1.056 -1.898,1.531 -2.96,2.142 l -0.004,0.002 c -0.545,0.313 -1.08,0.649 -1.623,0.969 l -0.002,0.002 c -0.281,0.165 -0.578,0.294 -0.891,0.384 -0.817,0.234 -1.646,0.43 -2.442,0.699 -0.959,0.349 -1.942,0.567 -2.954,0.655 -0.015,10e-4 -0.031,0.002 -0.046,0.003 -0.597,0.041 -1.184,0.196 -1.78,0.269 -0.029,0.003 -0.058,0.006 -0.088,0.009 -0.254,0.021 -0.509,0.033 -0.764,0.036 -0.025,0.934 -0.283,1.839 -0.435,2.758 l -0.001,0.006 c -0.055,0.327 -0.071,0.66 -0.1,0.991 v 0.002 c -0.05,0.56 -0.059,1.173 -0.27,1.65 -0.37,0.836 -0.184,1.736 -0.261,2.595 -0.033,0.584 -0.125,1.159 -0.278,1.726 -0.011,0.043 -0.024,0.085 -0.038,0.128 -0.53,1.596 -1.543,2.667 -3.466,2.772 h -0.004 c -0.348,0.018 -0.668,0.18 -1.007,0.271 -0.577,0.153 -1.167,0.243 -1.786,0.201 l -0.006,-10e-4 c -0.755,-0.054 -1.361,-0.207 -1.886,-0.58 -1.008,0.789 -2.101,1.434 -3.4212,1.661 -0.4845,0.109 -0.9726,0.137 -1.4638,0.083 -0.0604,-0.007 -0.1211,-0.016 -0.1808,-0.028 -0.9577,-0.184 -1.9036,-0.14 -2.8389,0.135 -0.0242,0.007 -0.0481,0.013 -0.0726,0.02 -0.3769,0.097 -0.7517,0.2 -1.1286,0.296 h -0.0027 c -1.2203,0.309 -1.8622,0.015 -2.2759,-0.244 -0.3871,-0.243 -0.9503,-0.681 -1.223,-1.958 -0.0046,-0.021 -0.0086,-0.043 -0.0129,-0.065 -0.0015,-0.01 -0.004,-0.02 -0.0067,-0.03 -0.1456,0.005 -0.3025,0.007 -0.414,0.001 -0.0325,-0.002 -0.065,-0.005 -0.0969,-0.008 -0.8708,-0.086 -1.549,-0.494 -2.0325,-1.237 -0.1364,-0.21 -0.2384,-0.44 -0.3022,-0.683 -0.2359,-0.9 -0.0567,-1.706 0.5341,-2.418 0.0405,-0.049 0.0828,-0.096 0.1269,-0.142 0.6968,-0.714 1.473,-1.238 2.5642,-1.307 0.0675,-0.272 0.1753,-0.519 0.308,-0.742 0.3837,-0.647 1.0397,-1.147 1.8757,-1.323 1.2018,-0.284 2.328,-0.092 3.3781,0.584 0.0025,0.002 0.0049,0.003 0.0074,0.005 0.5203,0.337 1.0885,0.44 1.675,0.418 0.136,-0.737 0.3021,-1.465 0.4958,-2.189 0.0043,-0.015 0.0083,-0.03 0.0129,-0.045 0.0766,-0.265 0.0925,-0.536 0.0514,-0.804 -0.1388,-0.89 -0.2034,-1.794 -0.2797,-2.694 -0.6577,-0.352 -1.303,-0.732 -1.9821,-1.022 -0.976,-0.39 -1.7353,-1.043 -2.2774,-1.982 -0.3876,-0.652 -0.8507,-1.255 -1.2438,-1.902 -0.3769,-0.6 -0.6944,-1.23 -0.9515,-1.892 -0.0135,-0.034 -0.026,-0.069 -0.038,-0.104 -0.2448,-0.733 -1.659,-2.464 -3.1014,-4.223 -0.7784,-0.949 -4.0407,-4.385 -4.7029,-5.147 -2.2768,-2.621 -6.2601,-5.024 -10.9713,-10.261 -0.7762,-0.864 -3.9606,-5.625 -4.902,-8.65 -1.5352,-4.934 0.3613,-12.297 1.9091,-15.291 0.3239,-0.627 0.7529,-1.174 0.9273,-1.86 0.0067,-0.026 0.0137,-0.052 0.0211,-0.077 0.0806,-0.276 1.033,-2.1636 1.3474,-2.8696 0.6833,-1.5448 1.3364,-3.1067 1.9983,-4.6624 l 0.0024,-0.0059 c 0.1336,-0.3119 2.0663,-4.8582 2.2459,-5.3809 0.0079,-0.0243 0.0168,-0.0479 0.0257,-0.0718 0.3803,-1.0011 2.654,-5.0246 3.7909,-8.6426 1.0131,-3.225 2.692,-10.6811 3.1643,-12.3304 0.0389,-0.136 0.0803,-0.2592 0.1219,-0.3692 0.0592,-0.3871 0.5075,-3.3166 0.7303,-4.728 -0.1805,-0.2194 -0.3766,-0.3959 -0.6907,-0.3187 -1.0536,0.2605 -2.1405,0.3806 -3.2152,0.5559 -0.0187,0.0027 -0.038,0.0058 -0.0567,0.0085 -1.7086,0.2357 -3.3471,-0.0107 -4.9164,-0.7409 -0.254,-0.1051 -0.5176,-0.145 -0.7906,-0.1159 -0.0631,0.0068 -0.1266,0.0111 -0.1903,0.0126 -0.6358,0.0163 -1.2671,-0.0184 -1.8987,-0.1039 l 0.0653,0.0065 c -0.0659,-0.0083 -0.14,-0.02 -0.2071,-0.0316 -0.7281,-0.0107 -1.4525,-0.0708 -2.1733,-0.178 -0.0527,-0.008 -0.1054,-0.0175 -0.1575,-0.0288 -0.4698,-0.1033 -1.2637,-0.524 -1.5233,-0.6659 -0.6812,-0.0644 -1.3569,-0.3776 -1.891,-0.9129 -0.6843,-0.6858 -1.0553,-1.7264 -1.0054,-2.5443 0.0276,-0.6742 0.236,-1.2877 0.6141,-1.8359 l 0.0028,-0.004 c 0.4002,-0.5779 0.9202,-0.9876 1.5634,-1.2419 0.0456,-0.0181 0.0919,-0.0347 0.1385,-0.05 0.4854,-0.1575 0.984,-0.2583 1.4856,-0.3027 0.4351,-0.0494 0.873,-0.0494 1.3048,-0.1128 0.0509,-0.0077 0.1017,-0.0138 0.1526,-0.0175 0.0383,-0.0034 0.0757,-0.0116 0.1134,-0.0248 0.9815,-0.5709 1.9382,-1.1856 2.9139,-1.7681 z M 93.89,56.7455 C 93.7003,56.0282 93.401,55.3436 93.1402,54.6492 92.9735,54.2 92.048,52.062 90.8027,50.9328 c -2.1205,-1.9232 -4.9967,-2.943 -5.4083,-3.058 -1.5309,-0.4271 -3.1431,-0.9079 -4.9416,-0.6383 -0.3012,0.0451 -1.8854,0.7401 -2.0865,0.9745 -0.2611,0.2265 -0.5362,0.4364 -0.8224,0.6257 -1.1673,0.9157 -1.9591,2.0688 -2.1037,3.6043 -0.0598,0.6426 -0.4257,1.0107 -0.9368,1.3131 -1.0725,0.6352 -2.1199,1.3131 -3.1979,1.9351 -0.3135,0.1502 -0.6411,0.2394 -0.9855,0.2676 -0.4658,0.0683 -0.9387,0.0683 -1.4081,0.1259 -0.3405,0.0279 -0.6757,0.0947 -1.0017,0.2004 -0.2066,0.0818 -0.3733,0.2136 -0.502,0.3996 -0.1265,0.1839 -0.1955,0.3898 -0.2028,0.6162 -0.0417,0.4291 0.3695,1.0177 0.8187,1.0235 0.7085,0.0056 1.1578,0.5737 1.7666,0.7073 0.6742,0.1005 1.352,0.1523 2.0329,0.1544 0.0852,0.0052 0.1667,0.039 0.2519,0.0445 0.5072,0.0686 1.0149,0.0968 1.5255,0.0836 0.6922,-0.0741 1.3593,0.0294 2.0004,0.3083 1.1598,0.5458 2.3718,0.7318 3.6361,0.5571 1.0131,-0.1652 2.0387,-0.273 3.0316,-0.5182 1.4332,-0.353 2.3972,0.3883 3.2577,1.3557 0.1578,0.1857 0.2663,0.3974 0.326,0.6349 0.0598,0.2378 0.0653,0.4756 0.0163,0.7171 -0.2482,1.5542 -0.7373,5.1067 -0.8424,5.2998 -0.201,0.262 -2.1613,9.1097 -3.292,12.7094 -1.1535,3.6711 -3.4499,7.7568 -3.836,8.7726 -0.1848,0.5387 -2.1705,5.2219 -2.3081,5.5431 -0.6671,1.5674 -1.3244,3.1406 -2.0129,4.6967 -0.2829,0.6353 -1.1672,2.3253 -1.2396,2.5733 -0.2191,0.862 -0.7097,1.571 -1.116,2.357 -1.3698,2.65 -3.1121,9.157 -1.7537,13.523 0.8467,2.721 3.7097,7.004 4.408,7.781 4.7237,5.251 8.7151,7.664 10.9983,10.292 0.6677,0.769 3.9591,4.239 4.7448,5.197 1.6744,2.041 3.2271,4.114 3.5115,4.964 0.2047,0.528 0.4587,1.029 0.759,1.506 0.406,0.671 0.8844,1.293 1.2831,1.966 0.2663,0.467 0.6468,0.794 1.1381,0.987 0.8638,0.366 1.6756,0.862 2.5164,1.291 0.6631,0.338 0.8424,0.935 0.9025,1.624 0.0738,0.87 0.132,1.744 0.2659,2.604 0.094,0.614 0.056,1.22 -0.1158,1.814 -0.2264,0.845 -0.4112,1.698 -0.5507,2.561 -0.1467,0.888 -0.2935,1.112 -1.1978,1.263 -1.3897,0.23 -2.7395,0.091 -3.9536,-0.696 -0.4965,-0.32 -1.029,-0.409 -1.5978,-0.27 -0.277,0.054 -0.4802,0.234 -0.4296,0.548 0.1434,0.875 -0.3932,1.172 -1.0633,1.356 -0.3264,0.109 -0.6613,0.18 -1.0021,0.211 -0.4854,0.013 -0.7915,0.299 -1.0943,0.609 -0.0818,0.099 -0.1051,0.21 -0.0723,0.334 0.0723,0.112 0.1738,0.173 0.3043,0.186 0.4165,0.024 0.8191,-0.126 1.25,0.115 0.3496,0.181 0.6413,0.433 0.8751,0.753 0.2357,0.321 0.3877,0.679 0.4603,1.073 0.1177,0.551 0.1468,0.548 0.6395,0.424 0.3733,-0.095 0.7447,-0.198 1.1179,-0.294 1.2975,-0.381 2.6093,-0.442 3.9374,-0.187 0.2497,0.027 0.4983,0.009 0.7443,-0.053 1.4262,-0.222 2.4485,-1.17 3.4755,-2.089 0.418,-0.373 0.453,-0.427 0.837,-0.132 0.248,0.175 0.462,0.383 0.645,0.628 0.25,0.374 0.56,0.444 0.977,0.473 0.887,0.062 1.661,-0.428 2.509,-0.473 0.783,-0.043 1.158,-0.524 1.373,-1.174 0.114,-0.423 0.182,-0.852 0.203,-1.288 0.122,-1.126 -0.025,-2.283 0.455,-3.369 0.116,-0.262 0.053,-0.605 0.08,-0.911 0.034,-0.392 0.058,-0.787 0.123,-1.174 0.168,-1.018 0.624,-2.002 0.341,-3.074 -0.011,-0.089 -0.006,-0.176 0.014,-0.261 0.134,-1.12 0.596,-1.508 1.703,-1.432 0.085,0.007 0.169,0.048 0.252,0.048 0.335,0.011 0.668,0.004 1,-0.024 0.638,-0.078 1.268,-0.238 1.908,-0.281 0.814,-0.07 1.603,-0.247 2.374,-0.529 0.846,-0.288 1.719,-0.496 2.58,-0.743 0.123,-0.035 0.239,-0.087 0.349,-0.152 0.551,-0.325 1.095,-0.667 1.649,-0.984 0.843,-0.485 1.844,-0.719 2.364,-1.7 0.111,-0.206 0.414,-0.298 0.617,-0.458 0.406,-0.32 0.8,-0.652 1.203,-0.973 0.301,-0.241 0.594,-0.494 0.913,-0.71 0.899,-0.551 1.616,-1.286 2.154,-2.206 0.401,-0.728 0.866,-1.407 1.395,-2.042 0.89,-1.02 1.906,-1.878 3.051,-2.58 1.08,-0.696 3.989,-5.019 4.581,-5.859 1.127,-1.599 2.462,-4.461 2.805,-5.842 0.478,-1.931 0.734,-6.656 0.855,-8.357 0.021,-0.443 -0.08,-0.856 -0.308,-1.235 -0.312,-0.488 -0.252,-0.85 -0.009,-1.327 0.188,-0.349 0.302,-0.723 0.344,-1.12 0.04,-0.398 0.004,-0.785 -0.111,-1.168 -0.014,-0.088 -0.045,-0.167 -0.088,-0.243 -0.046,-0.075 -0.102,-0.14 -0.169,-0.194 -0.068,-0.052 -0.143,-0.09 -0.226,-0.115 -0.082,-0.024 -0.167,-0.031 -0.252,-0.024 -0.817,0.008 -1.613,0.041 -2.325,0.572 -0.844,0.631 -1.904,0.916 -2.632,1.762 -0.276,0.236 -0.591,0.335 -0.948,0.296 -0.922,-0.084 -1.652,0.317 -2.392,0.787 -0.938,0.594 -4.404,2.968 -4.872,3.747 -0.025,0.051 -0.058,0.093 -0.103,0.127 -0.043,0.033 -0.092,0.055 -0.145,0.067 -0.054,0.011 -0.109,0.009 -0.161,-0.006 -0.053,-0.015 -0.1,-0.041 -0.142,-0.078 -0.311,-0.23 -0.617,-0.466 -0.904,-0.726 -0.513,-0.466 -0.987,-0.975 -1.511,-1.423 -1.011,-0.863 -5.332,-4.109 -6.442,-4.919 -0.394,-0.26 -3.67,-2.308 -4.047,-2.596 -0.574,-0.466 -1.286,-0.657 -1.9,-1.066 -1.284,-0.856 -3.984,-2.241 -5.454,-2.891 -0.98,-0.434 -7.5898,-3.02 -7.8834,-3.072 -0.5742,-0.098 -5.3748,-1.481 -6.0459,-2.191 -2.4098,-2.5513 -2.3066,-8.737 -2.3354,-10.0504 -0.0236,-1.0081 -0.0947,-6.2411 0.0687,-7.8662 0.1268,-1.2622 0.2218,-3.8086 0.5491,-5.4404 0.4897,-2.4414 2.5719,-6.7321 3.4174,-10.4298 0.3839,-1.6805 0.7746,-3.8501 0.6701,-5.571 -0.0894,-1.4733 -0.4253,-3.6297 -0.7866,-4.9937 z m 9.889,104.3005 c -1.308,0.015 -1.822,-0.524 -1.592,-1.861 0.184,-1.064 0.25,-2.18 0.819,-3.15 0.076,-0.158 0.13,-0.321 0.161,-0.496 0.253,-1.049 0.489,-2.106 0.77,-3.149 0.091,-0.193 0.237,-0.31 0.444,-0.347 0.549,-0.032 1.098,-0.027 1.647,0.016 0.157,0.047 0.263,0.149 0.313,0.31 0.234,1.376 0.448,2.755 0.645,4.138 0.045,0.303 0.037,0.605 -0.023,0.906 -0.189,0.897 -0.426,1.783 -0.623,2.676 -0.015,0.099 -0.044,0.191 -0.09,0.279 -0.045,0.087 -0.103,0.163 -0.173,0.23 -0.073,0.067 -0.152,0.119 -0.243,0.156 -0.089,0.037 -0.181,0.056 -0.277,0.059 -0.551,0.069 -1.734,0.233 -1.778,0.233 z"
style="clip-rule:evenodd;display:inline;fill:#1b73ba;fill-rule:evenodd;stroke-linejoin:round;stroke-miterlimit:2"
id="path1178" />
</g>
</svg>
