<?xml version="1.0" encoding="UTF-8" standalone="no"?>
<!DOCTYPE svg PUBLIC "-//W3C//DTD SVG 1.1//EN"
 "http://www.w3.org/Graphics/SVG/1.1/DTD/svg11.dtd">
<!-- Generated by graphviz version 2.43.0 (0)
 -->
<!-- Title: libgosling.hpp Pages: 1 -->
<svg width="450pt" height="140pt"
 viewBox="0.00 0.00 449.50 140.00" xmlns="http://www.w3.org/2000/svg" xmlns:xlink="http://www.w3.org/1999/xlink">
<g id="graph0" class="graph" transform="scale(1 1) rotate(0) translate(4 136)">
<title>libgosling.hpp</title>
<polygon fill="white" stroke="transparent" points="-4,4 -4,-136 445.5,-136 445.5,4 -4,4"/>
<!-- Node1 -->
<g id="node1" class="node">
<title>Node1</title>
<g id="a_node1"><a xlink:title=" ">
<polygon fill="#bfbfbf" stroke="black" points="101.5,-112.5 101.5,-131.5 186.5,-131.5 186.5,-112.5 101.5,-112.5"/>
<text text-anchor="middle" x="144" y="-119.5" font-family="Helvetica,sans-Serif" font-size="10.00">libgosling.hpp</text>
</a>
</g>
</g>
<!-- Node2 -->
<g id="node2" class="node">
<title>Node2</title>
<g id="a_node2"><a xlink:title=" ">
<polygon fill="white" stroke="#bfbfbf" points="0,-56.5 0,-75.5 58,-75.5 58,-56.5 0,-56.5"/>
<text text-anchor="middle" x="29" y="-63.5" font-family="Helvetica,sans-Serif" font-size="10.00">memory</text>
</a>
</g>
</g>
<!-- Node1&#45;&gt;Node2 -->
<g id="edge1" class="edge">
<title>Node1&#45;&gt;Node2</title>
<path fill="none" stroke="midnightblue" d="M125.78,-112.44C107.1,-103.68 77.84,-89.94 56.38,-79.86"/>
<polygon fill="midnightblue" stroke="midnightblue" points="57.68,-76.6 47.14,-75.52 54.7,-82.93 57.68,-76.6"/>
</g>
<!-- Node3 -->
<g id="node3" class="node">
<title>Node3</title>
<g id="a_node3"><a xlink:title=" ">
<polygon fill="white" stroke="#bfbfbf" points="76.5,-56.5 76.5,-75.5 133.5,-75.5 133.5,-56.5 76.5,-56.5"/>
<text text-anchor="middle" x="105" y="-63.5" font-family="Helvetica,sans-Serif" font-size="10.00">ostream</text>
</a>
</g>
</g>
<!-- Node1&#45;&gt;Node3 -->
<g id="edge2" class="edge">
<title>Node1&#45;&gt;Node3</title>
<path fill="none" stroke="midnightblue" d="M137.56,-112.08C132.05,-104.46 123.97,-93.26 117.24,-83.94"/>
<polygon fill="midnightblue" stroke="midnightblue" points="120.01,-81.81 111.32,-75.75 114.34,-85.91 120.01,-81.81"/>
</g>
<!-- Node4 -->
<g id="node4" class="node">
<title>Node4</title>
<g id="a_node4"><a xlink:title=" ">
<polygon fill="white" stroke="#bfbfbf" points="151.5,-56.5 151.5,-75.5 216.5,-75.5 216.5,-56.5 151.5,-56.5"/>
<text text-anchor="middle" x="184" y="-63.5" font-family="Helvetica,sans-Serif" font-size="10.00">stdexcept</text>
</a>
</g>
</g>
<!-- Node1&#45;&gt;Node4 -->
<g id="edge3" class="edge">
<title>Node1&#45;&gt;Node4</title>
<path fill="none" stroke="midnightblue" d="M150.61,-112.08C156.26,-104.46 164.54,-93.26 171.45,-83.94"/>
<polygon fill="midnightblue" stroke="midnightblue" points="174.38,-85.87 177.52,-75.75 168.75,-81.7 174.38,-85.87"/>
</g>
<!-- Node5 -->
<g id="node5" class="node">
<title>Node5</title>
<g id="a_node5"><a xlink:href="libgosling_8h.html" target="_top" xlink:title=" ">
<polygon fill="white" stroke="black" points="234.5,-56.5 234.5,-75.5 307.5,-75.5 307.5,-56.5 234.5,-56.5"/>
<text text-anchor="middle" x="271" y="-63.5" font-family="Helvetica,sans-Serif" font-size="10.00">libgosling.h</text>
</a>
</g>
</g>
<!-- Node1&#45;&gt;Node5 -->
<g id="edge4" class="edge">
<title>Node1&#45;&gt;Node5</title>
<path fill="none" stroke="midnightblue" d="M164.12,-112.44C185.02,-103.56 217.93,-89.56 241.72,-79.45"/>
<polygon fill="midnightblue" stroke="midnightblue" points="243.14,-82.65 250.97,-75.52 240.4,-76.21 243.14,-82.65"/>
</g>
<!-- Node6 -->
<g id="node6" class="node">
<title>Node6</title>
<g id="a_node6"><a xlink:title=" ">
<polygon fill="white" stroke="#bfbfbf" points="89,-0.5 89,-19.5 145,-19.5 145,-0.5 89,-0.5"/>
<text text-anchor="middle" x="117" y="-7.5" font-family="Helvetica,sans-Serif" font-size="10.00">stdarg.h</text>
</a>
</g>
</g>
<!-- Node5&#45;&gt;Node6 -->
<g id="edge5" class="edge">
<title>Node5&#45;&gt;Node6</title>
<path fill="none" stroke="midnightblue" d="M246.6,-56.44C220.8,-47.4 179.92,-33.06 150.98,-22.92"/>
<polygon fill="midnightblue" stroke="midnightblue" points="151.88,-19.52 141.29,-19.52 149.57,-26.13 151.88,-19.52"/>
</g>
<!-- Node7 -->
<g id="node7" class="node">
<title>Node7</title>
<g id="a_node7"><a xlink:title=" ">
<polygon fill="white" stroke="#bfbfbf" points="163,-0.5 163,-19.5 225,-19.5 225,-0.5 163,-0.5"/>
<text text-anchor="middle" x="194" y="-7.5" font-family="Helvetica,sans-Serif" font-size="10.00">stdbool.h</text>
</a>
</g>
</g>
<!-- Node5&#45;&gt;Node7 -->
<g id="edge6" class="edge">
<title>Node5&#45;&gt;Node7</title>
<path fill="none" stroke="midnightblue" d="M258.63,-56.32C246.84,-48.06 228.87,-35.45 214.86,-25.63"/>
<polygon fill="midnightblue" stroke="midnightblue" points="216.54,-22.53 206.34,-19.65 212.52,-28.26 216.54,-22.53"/>
</g>
<!-- Node8 -->
<g id="node8" class="node">
<title>Node8</title>
<g id="a_node8"><a xlink:title=" ">
<polygon fill="white" stroke="#bfbfbf" points="243,-0.5 243,-19.5 299,-19.5 299,-0.5 243,-0.5"/>
<text text-anchor="middle" x="271" y="-7.5" font-family="Helvetica,sans-Serif" font-size="10.00">stddef.h</text>
</a>
</g>
</g>
<!-- Node5&#45;&gt;Node8 -->
<g id="edge7" class="edge">
<title>Node5&#45;&gt;Node8</title>
<path fill="none" stroke="midnightblue" d="M271,-56.08C271,-49.01 271,-38.86 271,-29.99"/>
<polygon fill="midnightblue" stroke="midnightblue" points="274.5,-29.75 271,-19.75 267.5,-29.75 274.5,-29.75"/>
</g>
<!-- Node9 -->
<g id="node9" class="node">
<title>Node9</title>
<g id="a_node9"><a xlink:title=" ">
<polygon fill="white" stroke="#bfbfbf" points="317.5,-0.5 317.5,-19.5 370.5,-19.5 370.5,-0.5 317.5,-0.5"/>
<text text-anchor="middle" x="344" y="-7.5" font-family="Helvetica,sans-Serif" font-size="10.00">stdint.h</text>
</a>
</g>
</g>
<!-- Node5&#45;&gt;Node9 -->
<g id="edge8" class="edge">
<title>Node5&#45;&gt;Node9</title>
<path fill="none" stroke="midnightblue" d="M282.73,-56.32C293.84,-48.11 310.74,-35.6 323.98,-25.81"/>
<polygon fill="midnightblue" stroke="midnightblue" points="326.1,-28.59 332.06,-19.83 321.94,-22.97 326.1,-28.59"/>
</g>
<!-- Node10 -->
<g id="node10" class="node">
<title>Node10</title>
<g id="a_node10"><a xlink:title=" ">
<polygon fill="white" stroke="#bfbfbf" points="388.5,-0.5 388.5,-19.5 441.5,-19.5 441.5,-0.5 388.5,-0.5"/>
<text text-anchor="middle" x="415" y="-7.5" font-family="Helvetica,sans-Serif" font-size="10.00">stdlib.h</text>
</a>
</g>
</g>
<!-- Node5&#45;&gt;Node10 -->
<g id="edge9" class="edge">
<title>Node5&#45;&gt;Node10</title>
<path fill="none" stroke="midnightblue" d="M293.82,-56.44C317.83,-47.44 355.83,-33.19 382.87,-23.05"/>
<polygon fill="midnightblue" stroke="midnightblue" points="384.16,-26.3 392.29,-19.52 381.7,-19.75 384.16,-26.3"/>
</g>
</g>
</svg>
