<?xml version="1.0" encoding="utf-8" standalone="no"?>
<svg xmlns="http://www.w3.org/2000/svg"
xmlns:xlink="http://www.w3.org/1999/xlink"
contentScriptType="application/ecmascript"
contentStyleType="text/css" height="766px"
preserveAspectRatio="none" style="width:530px;height:766px;"
version="1.1" viewBox="0 0 530 766" width="530px"
zoomAndPan="magnify">
  <defs>
    <filter height="300%" id="fsg2nlc4j22tt" width="300%" x="-1"
    y="-1">
      <feGaussianBlur result="blurOut" stdDeviation="2.0" />
      <feColorMatrix in="blurOut" result="blurOut2" type="matrix"
      values="0 0 0 0 0 0 0 0 0 0 0 0 0 0 0 0 0 0 .4 0" />
      <feOffset dx="4.0" dy="4.0" in="blurOut2"
      result="blurOut3" />
      <feBlend in="SourceGraphic" in2="blurOut3" mode="normal" />
    </filter>
  </defs>
  <g>
    <rect fill="#FFFFFF" filter="url(#fsg2nlc4j22tt)"
    height="85.3984" style="stroke: #000000; stroke-width: 2.0;"
    width="426" x="37" y="123.5625" />
    <rect fill="#FFFFFF" filter="url(#fsg2nlc4j22tt)"
    height="85.3984" style="stroke: #000000; stroke-width: 2.0;"
    width="426" x="37" y="516.0234" />
    <line style="stroke: #A80036; stroke-width: 1.0; stroke-dasharray: 5.0,5.0;"
    x1="75" x2="75" y1="38.2969" y2="725.8203" />
    <line style="stroke: #A80036; stroke-width: 1.0; stroke-dasharray: 5.0,5.0;"
    x1="378" x2="378" y1="38.2969" y2="725.8203" />
    <rect fill="#FEFECE" filter="url(#fsg2nlc4j22tt)"
    height="30.2969" style="stroke: #A80036; stroke-width: 1.5;"
    width="53" x="47" y="3" />
    <text fill="#000000" font-family="sans-serif" font-size="14"
    lengthAdjust="spacingAndGlyphs" textLength="39" x="54"
    y="22.9951">Client</text>
    <rect fill="#FEFECE" filter="url(#fsg2nlc4j22tt)"
    height="30.2969" style="stroke: #A80036; stroke-width: 1.5;"
    width="53" x="47" y="724.8203" />
    <text fill="#000000" font-family="sans-serif" font-size="14"
    lengthAdjust="spacingAndGlyphs" textLength="39" x="54"
    y="744.8154">Client</text>
    <rect fill="#FEFECE" filter="url(#fsg2nlc4j22tt)"
    height="30.2969" style="stroke: #A80036; stroke-width: 1.5;"
    width="145" x="304" y="3" />
    <text fill="#000000" font-family="sans-serif" font-size="14"
    lengthAdjust="spacingAndGlyphs" textLength="131" x="311"
    y="22.9951">Introduction Server</text>
    <rect fill="#FEFECE" filter="url(#fsg2nlc4j22tt)"
    height="30.2969" style="stroke: #A80036; stroke-width: 1.5;"
    width="145" x="304" y="724.8203" />
    <text fill="#000000" font-family="sans-serif" font-size="14"
    lengthAdjust="spacingAndGlyphs" textLength="131" x="311"
    y="744.8154">Introduction Server</text>
    <polygon fill="#A80036"
    points="366.5,65.4297,376.5,69.4297,366.5,73.4297,370.5,69.4297"
    style="stroke: #A80036; stroke-width: 1.0;" />
    <line style="stroke: #A80036; stroke-width: 1.0;" x1="75.5"
    x2="372.5" y1="69.4297" y2="69.4297" />
    <text fill="#000000" font-family="sans-serif" font-size="13"
    lengthAdjust="spacingAndGlyphs" textLength="134" x="82.5"
    y="64.3638">begin_handshake(...)</text>
    <path d="M284,82.4297 L284,107.4297 L468,107.4297 L468,92.4297 L458,82.4297 L284,82.4297"
    fill="#FBFB77" filter="url(#fsg2nlc4j22tt)"
    style="stroke: #A80036; stroke-width: 1.0;" />
    <path d="M458,82.4297 L458,92.4297 L468,92.4297 L458,82.4297"
    fill="#FBFB77" style="stroke: #A80036; stroke-width: 1.0;" />
    <text fill="#000000" font-family="sans-serif" font-size="13"
    lengthAdjust="spacingAndGlyphs" textLength="163" x="290"
    y="99.4966">Evaluate Protocol Version</text>
    <path d="M37,123.5625 L101,123.5625 L101,130.5625 L91,140.5625 L37,140.5625 L37,123.5625"
    fill="#EEEEEE" style="stroke: #000000; stroke-width: 1.0;" />
    <rect fill="none" height="85.3984"
    style="stroke: #000000; stroke-width: 2.0;" width="426" x="37"
    y="123.5625" />
    <text fill="#000000" font-family="sans-serif" font-size="13"
    font-weight="bold" lengthAdjust="spacingAndGlyphs"
    textLength="19" x="52" y="136.6294">alt</text>
    <text fill="#000000" font-family="sans-serif" font-size="11"
    font-weight="bold" lengthAdjust="spacingAndGlyphs"
    textLength="144" x="116" y="135.7729">[Unsupported
    Version]</text>
    <polygon fill="#A80036"
    points="86.5,157.8281,76.5,161.8281,86.5,165.8281,82.5,161.8281"
    style="stroke: #A80036; stroke-width: 1.0;" />
    <line style="stroke: #A80036; stroke-width: 1.0;" x1="80.5"
    x2="377.5" y1="161.8281" y2="161.8281" />
    <text fill="#000000" font-family="sans-serif" font-size="13"
    lengthAdjust="spacingAndGlyphs" textLength="31" x="92.5"
    y="156.7622">error</text>
    <path d="M310,174.8281 L310,199.8281 L442,199.8281 L442,184.8281 L432,174.8281 L310,174.8281"
    fill="#FBFB77" filter="url(#fsg2nlc4j22tt)"
    style="stroke: #A80036; stroke-width: 1.0;" />
    <path d="M432,174.8281 L432,184.8281 L442,184.8281 L432,174.8281"
    fill="#FBFB77" style="stroke: #A80036; stroke-width: 1.0;" />
    <text fill="#000000" font-family="sans-serif" font-size="13"
    lengthAdjust="spacingAndGlyphs" textLength="111" x="316"
    y="191.895">Close Connection</text>
    <polygon fill="#A80036"
    points="86.5,233.0938,76.5,237.0938,86.5,241.0938,82.5,237.0938"
    style="stroke: #A80036; stroke-width: 1.0;" />
    <line style="stroke: #A80036; stroke-width: 1.0;" x1="80.5"
    x2="377.5" y1="237.0938" y2="237.0938" />
    <text fill="#000000" font-family="sans-serif" font-size="13"
    lengthAdjust="spacingAndGlyphs" textLength="279" x="92.5"
    y="232.0278">return {server_cookie, endpoint_challenge}</text>
    <polygon fill="#A80036"
    points="366.5,262.2266,376.5,266.2266,366.5,270.2266,370.5,266.2266"
    style="stroke: #A80036; stroke-width: 1.0;" />
    <line style="stroke: #A80036; stroke-width: 1.0;" x1="75.5"
    x2="372.5" y1="266.2266" y2="266.2266" />
    <text fill="#000000" font-family="sans-serif" font-size="13"
    lengthAdjust="spacingAndGlyphs" textLength="119" x="82.5"
    y="261.1606">send_response(...)</text>
    <path d="M26,279.2266 L26,304.2266 L427,304.2266 L427,289.2266 L417,279.2266 L26,279.2266"
    fill="#FBFB77" filter="url(#fsg2nlc4j22tt)"
    style="stroke: #A80036; stroke-width: 1.0;" />
    <path d="M417,279.2266 L417,289.2266 L427,289.2266 L417,279.2266"
    fill="#FBFB77" style="stroke: #A80036; stroke-width: 1.0;" />
    <text fill="#000000" font-family="sans-serif" font-size="13"
    lengthAdjust="spacingAndGlyphs" textLength="349" x="45.5"
    y="296.2935">Some time may pass as the Server processes
    request</text>
    <path d="M294,318.3594 L294,343.3594 L459,343.3594 L459,328.3594 L449,318.3594 L294,318.3594"
    fill="#FBFB77" filter="url(#fsg2nlc4j22tt)"
    style="stroke: #A80036; stroke-width: 1.0;" />
    <path d="M449,318.3594 L449,328.3594 L459,328.3594 L449,318.3594"
    fill="#FBFB77" style="stroke: #A80036; stroke-width: 1.0;" />
    <text fill="#000000" font-family="sans-serif" font-size="13"
    lengthAdjust="spacingAndGlyphs" textLength="144" x="300"
    y="335.4263">Check Client Block-List</text>
    <path d="M275,357.4922 L275,382.4922 L478,382.4922 L478,367.4922 L468,357.4922 L275,357.4922"
    fill="#FBFB77" filter="url(#fsg2nlc4j22tt)"
    style="stroke: #A80036; stroke-width: 1.0;" />
    <path d="M468,357.4922 L468,367.4922 L478,367.4922 L468,357.4922"
    fill="#FBFB77" style="stroke: #A80036; stroke-width: 1.0;" />
    <text fill="#000000" font-family="sans-serif" font-size="13"
    lengthAdjust="spacingAndGlyphs" textLength="182" x="281"
    y="374.5591">Check Client Proof Signature</text>
    <path d="M249,396.625 L249,421.625 L504,421.625 L504,406.625 L494,396.625 L249,396.625"
    fill="#FBFB77" filter="url(#fsg2nlc4j22tt)"
    style="stroke: #A80036; stroke-width: 1.0;" />
    <path d="M494,396.625 L494,406.625 L504,406.625 L494,396.625"
    fill="#FBFB77" style="stroke: #A80036; stroke-width: 1.0;" />
    <text fill="#000000" font-family="sans-serif" font-size="13"
    lengthAdjust="spacingAndGlyphs" textLength="234" x="255"
    y="413.6919">Check Client Authorization Signature</text>
    <path d="M280,435.7578 L280,460.7578 L472,460.7578 L472,445.7578 L462,435.7578 L280,435.7578"
    fill="#FBFB77" filter="url(#fsg2nlc4j22tt)"
    style="stroke: #A80036; stroke-width: 1.0;" />
    <path d="M462,435.7578 L462,445.7578 L472,445.7578 L462,435.7578"
    fill="#FBFB77" style="stroke: #A80036; stroke-width: 1.0;" />
    <text fill="#000000" font-family="sans-serif" font-size="13"
    lengthAdjust="spacingAndGlyphs" textLength="171" x="286"
    y="452.8247">Check Requested Endpoint</text>
    <path d="M280,474.8906 L280,499.8906 L473,499.8906 L473,484.8906 L463,474.8906 L280,474.8906"
    fill="#FBFB77" filter="url(#fsg2nlc4j22tt)"
    style="stroke: #A80036; stroke-width: 1.0;" />
    <path d="M463,474.8906 L463,484.8906 L473,484.8906 L463,474.8906"
    fill="#FBFB77" style="stroke: #A80036; stroke-width: 1.0;" />
    <text fill="#000000" font-family="sans-serif" font-size="13"
    lengthAdjust="spacingAndGlyphs" textLength="172" x="286"
    y="491.9575">Check Challenge Response</text>
    <path d="M37,516.0234 L101,516.0234 L101,523.0234 L91,533.0234 L37,533.0234 L37,516.0234"
    fill="#EEEEEE" style="stroke: #000000; stroke-width: 1.0;" />
    <rect fill="none" height="85.3984"
    style="stroke: #000000; stroke-width: 2.0;" width="426" x="37"
    y="516.0234" />
    <text fill="#000000" font-family="sans-serif" font-size="13"
    font-weight="bold" lengthAdjust="spacingAndGlyphs"
    textLength="19" x="52" y="529.0903">alt</text>
    <text fill="#000000" font-family="sans-serif" font-size="11"
    font-weight="bold" lengthAdjust="spacingAndGlyphs"
    textLength="120" x="116" y="528.2339">[Any Check Failed]</text>
    <polygon fill="#A80036"
    points="86.5,550.2891,76.5,554.2891,86.5,558.2891,82.5,554.2891"
    style="stroke: #A80036; stroke-width: 1.0;" />
    <line style="stroke: #A80036; stroke-width: 1.0;" x1="80.5"
    x2="377.5" y1="554.2891" y2="554.2891" />
    <text fill="#000000" font-family="sans-serif" font-size="13"
    lengthAdjust="spacingAndGlyphs" textLength="31" x="92.5"
    y="549.2231">error</text>
    <path d="M310,567.2891 L310,592.2891 L442,592.2891 L442,577.2891 L432,567.2891 L310,567.2891"
    fill="#FBFB77" filter="url(#fsg2nlc4j22tt)"
    style="stroke: #A80036; stroke-width: 1.0;" />
    <path d="M432,567.2891 L432,577.2891 L442,577.2891 L432,567.2891"
    fill="#FBFB77" style="stroke: #A80036; stroke-width: 1.0;" />
    <text fill="#000000" font-family="sans-serif" font-size="13"
    lengthAdjust="spacingAndGlyphs" textLength="111" x="316"
    y="584.356">Close Connection</text>
    <path d="M235,613.4219 L235,638.4219 L518,638.4219 L518,623.4219 L508,613.4219 L235,613.4219"
    fill="#FBFB77" filter="url(#fsg2nlc4j22tt)"
    style="stroke: #A80036; stroke-width: 1.0;" />
    <path d="M508,613.4219 L508,623.4219 L518,623.4219 L508,613.4219"
    fill="#FBFB77" style="stroke: #A80036; stroke-width: 1.0;" />
    <text fill="#000000" font-family="sans-serif" font-size="13"
    lengthAdjust="spacingAndGlyphs" textLength="262" x="241"
    y="630.4888">Adds the Client to the Endpoint Allow-List</text>
    <polygon fill="#A80036"
    points="86.5,664.6875,76.5,668.6875,86.5,672.6875,82.5,668.6875"
    style="stroke: #A80036; stroke-width: 1.0;" />
    <line style="stroke: #A80036; stroke-width: 1.0;" x1="80.5"
    x2="377.5" y1="668.6875" y2="668.6875" />
    <text fill="#000000" font-family="sans-serif" font-size="13"
    lengthAdjust="spacingAndGlyphs" textLength="119" x="92.5"
    y="663.6216">return {service id}</text>
    <path d="M8,681.6875 L8,706.6875 L140,706.6875 L140,691.6875 L130,681.6875 L8,681.6875"
    fill="#FBFB77" filter="url(#fsg2nlc4j22tt)"
    style="stroke: #A80036; stroke-width: 1.0;" />
    <path d="M130,681.6875 L130,691.6875 L140,691.6875 L130,681.6875"
    fill="#FBFB77" style="stroke: #A80036; stroke-width: 1.0;" />
    <text fill="#000000" font-family="sans-serif" font-size="13"
    lengthAdjust="spacingAndGlyphs" textLength="111" x="14"
    y="698.7544">Close Connection</text>
  </g>
</svg>
