<?xml version="1.0" encoding="utf-8" standalone="no"?>
<svg xmlns="http://www.w3.org/2000/svg"
xmlns:xlink="http://www.w3.org/1999/xlink"
contentScriptType="application/ecmascript"
contentStyleType="text/css" height="205px"
preserveAspectRatio="none" style="width:803px;height:205px;"
version="1.1" viewBox="0 0 803 205" width="803px"
zoomAndPan="magnify">
  <defs>
    <filter height="300%" id="f1b67ks2mb8o8p" width="300%" x="-1"
    y="-1">
      <feGaussianBlur result="blurOut" stdDeviation="2.0" />
      <feColorMatrix in="blurOut" result="blurOut2" type="matrix"
      values="0 0 0 0 0 0 0 0 0 0 0 0 0 0 0 0 0 0 .4 0" />
      <feOffset dx="4.0" dy="4.0" in="blurOut2"
      result="blurOut3" />
      <feBlend in="SourceGraphic" in2="blurOut3" mode="normal" />
    </filter>
  </defs>
  <g>
    <rect fill="#FEFECE" filter="url(#f1b67ks2mb8o8p)"
    height="22.2969" style="stroke: #000000; stroke-width: 1.5;"
    width="248" x="6" y="90" />
    <text fill="#000000" font-family="sans-serif" font-size="14"
    lengthAdjust="spacingAndGlyphs" textLength="228" x="16"
    y="105.9951">Client Identity v3 Onion Service Id</text>
    <rect fill="#FEFECE" filter="url(#f1b67ks2mb8o8p)"
    height="22.2969" style="stroke: #000000; stroke-width: 1.5;"
    width="292" x="261" y="8" />
    <text fill="#000000" font-family="sans-serif" font-size="14"
    lengthAdjust="spacingAndGlyphs" textLength="272" x="271"
    y="23.9951">Client Auth x25519 Public Key + Signbit</text>
    <rect fill="#FEFECE" filter="url(#f1b67ks2mb8o8p)"
    height="22.2969" style="stroke: #000000; stroke-width: 1.5;"
    width="236" x="289" y="90" />
    <text fill="#000000" font-family="sans-serif" font-size="14"
    lengthAdjust="spacingAndGlyphs" textLength="216" x="299"
    y="105.9951">Client Auth ed25519 Public Key</text>
    <rect fill="#FEFECE" filter="url(#f1b67ks2mb8o8p)"
    height="22.2969" style="stroke: #000000; stroke-width: 1.5;"
    width="232" x="560" y="90" />
    <text fill="#000000" font-family="sans-serif" font-size="14"
    lengthAdjust="spacingAndGlyphs" textLength="212" x="570"
    y="105.9951">Client Auth ed25519 Signature</text>
    <rect fill="#FEFECE" filter="url(#f1b67ks2mb8o8p)"
    height="22.2969" style="stroke: #000000; stroke-width: 1.5;"
    width="311" x="251.5" y="172" />
    <text fill="#000000" font-family="sans-serif" font-size="14"
    lengthAdjust="spacingAndGlyphs" textLength="291" x="261.5"
    y="187.9951">Client Auth ed25519 Signature Verification</text>
    <path d="M407,30.13 C407,43.96 407,68.84 407,84.88" fill="none"
    id="x25519_public-&gt;ed25519_public"
    style="stroke: #A80036; stroke-width: 1.0;" />
    <polygon fill="#A80036"
    points="407,89.95,411,80.95,407,84.95,403,80.95,407,89.95"
    style="stroke: #A80036; stroke-width: 1.0;" />
    <path d="M164.8,112.05 C216.32,126.93 312.64,154.75 367,170.45"
    fill="none"
    id="client_identity-&gt;client_auth_signature_verification"
    style="stroke: #A80036; stroke-width: 1.0;" />
    <polygon fill="#A80036"
    points="372.12,171.93,364.5826,165.5907,367.3162,170.5432,362.3637,173.2768,372.12,171.93"
    style="stroke: #A80036; stroke-width: 1.0;" />
    <path d="M642.2,112.05 C592.17,126.93 498.64,154.75 445.85,170.45"
    fill="none"
    id="client_auth_signature-&gt;client_auth_signature_verification"
    style="stroke: #A80036; stroke-width: 1.0;" />
    <polygon fill="#A80036"
    points="440.87,171.93,450.6371,173.1965,445.6623,170.5037,448.3551,165.5289,440.87,171.93"
    style="stroke: #A80036; stroke-width: 1.0;" />
    <path d="M407,112.13 C407,125.96 407,150.84 407,166.88"
    fill="none"
    id="ed25519_public-&gt;client_auth_signature_verification"
    style="stroke: #A80036; stroke-width: 1.0;" />
    <polygon fill="#A80036"
    points="407,171.95,411,162.95,407,166.95,403,162.95,407,171.95"
    style="stroke: #A80036; stroke-width: 1.0;" />
  </g>
</svg>
