<?xml version="1.0" encoding="utf-8" standalone="no"?>
<svg xmlns="http://www.w3.org/2000/svg"
xmlns:xlink="http://www.w3.org/1999/xlink"
contentScriptType="application/ecmascript"
contentStyleType="text/css" height="205px"
preserveAspectRatio="none" style="width:608px;height:205px;"
version="1.1" viewBox="0 0 608 205" width="608px"
zoomAndPan="magnify">
  <defs>
    <filter height="300%" id="fegmh7m96sgwn" width="300%" x="-1"
    y="-1">
      <feGaussianBlur result="blurOut" stdDeviation="2.0" />
      <feColorMatrix in="blurOut" result="blurOut2" type="matrix"
      values="0 0 0 0 0 0 0 0 0 0 0 0 0 0 0 0 0 0 .4 0" />
      <feOffset dx="4.0" dy="4.0" in="blurOut2"
      result="blurOut3" />
      <feBlend in="SourceGraphic" in2="blurOut3" mode="normal" />
    </filter>
  </defs>
  <g>
    <rect fill="#FEFECE" filter="url(#fegmh7m96sgwn)"
    height="22.2969" style="stroke: #000000; stroke-width: 1.5;"
    width="248" x="6" y="90" />
    <text fill="#000000" font-family="sans-serif" font-size="14"
    lengthAdjust="spacingAndGlyphs" textLength="228" x="16"
    y="105.9951">Client Identity v3 Onion Service Id</text>
    <rect fill="#FEFECE" filter="url(#fegmh7m96sgwn)"
    height="22.2969" style="stroke: #000000; stroke-width: 1.5;"
    width="230" x="328" y="8" />
    <text fill="#000000" font-family="sans-serif" font-size="14"
    lengthAdjust="spacingAndGlyphs" textLength="210" x="338"
    y="23.9951">Client Auth x25519 Private Key</text>
    <rect fill="#FEFECE" filter="url(#fegmh7m96sgwn)"
    height="22.2969" style="stroke: #000000; stroke-width: 1.5;"
    width="308" x="289" y="90" />
    <text fill="#000000" font-family="sans-serif" font-size="14"
    lengthAdjust="spacingAndGlyphs" textLength="288" x="299"
    y="105.9951">Client Auth ed25519 Private Key + Signbit</text>
    <rect fill="#FEFECE" filter="url(#fegmh7m96sgwn)"
    height="22.2969" style="stroke: #000000; stroke-width: 1.5;"
    width="232" x="170" y="172" />
    <text fill="#000000" font-family="sans-serif" font-size="14"
    lengthAdjust="spacingAndGlyphs" textLength="212" x="180"
    y="187.9951">Client Auth ed25519 Signature</text>
    <path d="M443,30.13 C443,43.96 443,68.84 443,84.88" fill="none"
    id="x25519_private-&gt;ed25519_private"
    style="stroke: #A80036; stroke-width: 1.0;" />
    <polygon fill="#A80036"
    points="443,89.95,447,80.95,443,84.95,439,80.95,443,89.95"
    style="stroke: #A80036; stroke-width: 1.0;" />
    <path d="M423.12,112.13 C394.45,126.74 341.56,153.69 310.51,169.51"
    fill="none" id="ed25519_private-&gt;client_auth_signature"
    style="stroke: #A80036; stroke-width: 1.0;" />
    <polygon fill="#A80036"
    points="305.72,171.95,315.555,171.4274,310.1749,169.6797,311.9226,164.2996,305.72,171.95"
    style="stroke: #A80036; stroke-width: 1.0;" />
    <path d="M149.76,112.13 C178.24,126.74 230.8,153.69 261.65,169.51"
    fill="none" id="client_identity-&gt;client_auth_signature"
    style="stroke: #A80036; stroke-width: 1.0;" />
    <polygon fill="#A80036"
    points="266.4,171.95,260.1974,164.2996,261.9451,169.6797,256.565,171.4274,266.4,171.95"
    style="stroke: #A80036; stroke-width: 1.0;" />
  </g>
</svg>
