<?xml version="1.0" encoding="utf-8" standalone="no"?>
<svg xmlns="http://www.w3.org/2000/svg"
xmlns:xlink="http://www.w3.org/1999/xlink"
contentScriptType="application/ecmascript"
contentStyleType="text/css" height="624px"
preserveAspectRatio="none" style="width:339px;height:624px;"
version="1.1" viewBox="0 0 339 624" width="339px"
zoomAndPan="magnify">
  <defs>
    <filter height="300%" id="futjmrqjruo0u" width="300%" x="-1"
    y="-1">
      <feGaussianBlur result="blurOut" stdDeviation="2.0" />
      <feColorMatrix in="blurOut" result="blurOut2" type="matrix"
      values="0 0 0 0 0 0 0 0 0 0 0 0 0 0 0 0 0 0 .4 0" />
      <feOffset dx="4.0" dy="4.0" in="blurOut2"
      result="blurOut3" />
      <feBlend in="SourceGraphic" in2="blurOut3" mode="normal" />
    </filter>
  </defs>
  <g>
    <rect fill="#FFFFFF" filter="url(#futjmrqjruo0u)"
    height="85.3984" style="stroke: #000000; stroke-width: 2.0;"
    width="300" x="13" y="123.5625" />
    <rect fill="#FFFFFF" filter="url(#futjmrqjruo0u)"
    height="85.3984" style="stroke: #000000; stroke-width: 2.0;"
    width="300" x="13" y="398.625" />
    <line style="stroke: #A80036; stroke-width: 1.0; stroke-dasharray: 5.0,5.0;"
    x1="51" x2="51" y1="38.2969" y2="584.4219" />
    <line style="stroke: #A80036; stroke-width: 1.0; stroke-dasharray: 5.0,5.0;"
    x1="235.5" x2="235.5" y1="38.2969" y2="584.4219" />
    <rect fill="#FEFECE" filter="url(#futjmrqjruo0u)"
    height="30.2969" style="stroke: #A80036; stroke-width: 1.5;"
    width="53" x="23" y="3" />
    <text fill="#000000" font-family="sans-serif" font-size="14"
    lengthAdjust="spacingAndGlyphs" textLength="39" x="30"
    y="22.9951">Client</text>
    <rect fill="#FEFECE" filter="url(#futjmrqjruo0u)"
    height="30.2969" style="stroke: #A80036; stroke-width: 1.5;"
    width="53" x="23" y="583.4219" />
    <text fill="#000000" font-family="sans-serif" font-size="14"
    lengthAdjust="spacingAndGlyphs" textLength="39" x="30"
    y="603.417">Client</text>
    <rect fill="#FEFECE" filter="url(#futjmrqjruo0u)"
    height="30.2969" style="stroke: #A80036; stroke-width: 1.5;"
    width="124" x="171.5" y="3" />
    <text fill="#000000" font-family="sans-serif" font-size="14"
    lengthAdjust="spacingAndGlyphs" textLength="110" x="178.5"
    y="22.9951">Endpoint Server</text>
    <rect fill="#FEFECE" filter="url(#futjmrqjruo0u)"
    height="30.2969" style="stroke: #A80036; stroke-width: 1.5;"
    width="124" x="171.5" y="583.4219" />
    <text fill="#000000" font-family="sans-serif" font-size="14"
    lengthAdjust="spacingAndGlyphs" textLength="110" x="178.5"
    y="603.417">Endpoint Server</text>
    <polygon fill="#A80036"
    points="223.5,65.4297,233.5,69.4297,223.5,73.4297,227.5,69.4297"
    style="stroke: #A80036; stroke-width: 1.0;" />
    <line style="stroke: #A80036; stroke-width: 1.0;" x1="51.5"
    x2="229.5" y1="69.4297" y2="69.4297" />
    <text fill="#000000" font-family="sans-serif" font-size="13"
    lengthAdjust="spacingAndGlyphs" textLength="134" x="58.5"
    y="64.3638">begin_handshake(...)</text>
    <path d="M141,82.4297 L141,107.4297 L325,107.4297 L325,92.4297 L315,82.4297 L141,82.4297"
    fill="#FBFB77" filter="url(#futjmrqjruo0u)"
    style="stroke: #A80036; stroke-width: 1.0;" />
    <path d="M315,82.4297 L315,92.4297 L325,92.4297 L315,82.4297"
    fill="#FBFB77" style="stroke: #A80036; stroke-width: 1.0;" />
    <text fill="#000000" font-family="sans-serif" font-size="13"
    lengthAdjust="spacingAndGlyphs" textLength="163" x="147"
    y="99.4966">Evaluate Protocol Version</text>
    <path d="M13,123.5625 L77,123.5625 L77,130.5625 L67,140.5625 L13,140.5625 L13,123.5625"
    fill="#EEEEEE" style="stroke: #000000; stroke-width: 1.0;" />
    <rect fill="none" height="85.3984"
    style="stroke: #000000; stroke-width: 2.0;" width="300" x="13"
    y="123.5625" />
    <text fill="#000000" font-family="sans-serif" font-size="13"
    font-weight="bold" lengthAdjust="spacingAndGlyphs"
    textLength="19" x="28" y="136.6294">alt</text>
    <text fill="#000000" font-family="sans-serif" font-size="11"
    font-weight="bold" lengthAdjust="spacingAndGlyphs"
    textLength="144" x="92" y="135.7729">[Unsupported
    Version]</text>
    <polygon fill="#A80036"
    points="62.5,157.8281,52.5,161.8281,62.5,165.8281,58.5,161.8281"
    style="stroke: #A80036; stroke-width: 1.0;" />
    <line style="stroke: #A80036; stroke-width: 1.0;" x1="56.5"
    x2="234.5" y1="161.8281" y2="161.8281" />
    <text fill="#000000" font-family="sans-serif" font-size="13"
    lengthAdjust="spacingAndGlyphs" textLength="31" x="68.5"
    y="156.7622">error</text>
    <path d="M167,174.8281 L167,199.8281 L299,199.8281 L299,184.8281 L289,174.8281 L167,174.8281"
    fill="#FBFB77" filter="url(#futjmrqjruo0u)"
    style="stroke: #A80036; stroke-width: 1.0;" />
    <path d="M289,174.8281 L289,184.8281 L299,184.8281 L289,174.8281"
    fill="#FBFB77" style="stroke: #A80036; stroke-width: 1.0;" />
    <text fill="#000000" font-family="sans-serif" font-size="13"
    lengthAdjust="spacingAndGlyphs" textLength="111" x="173"
    y="191.895">Close Connection</text>
    <polygon fill="#A80036"
    points="62.5,233.0938,52.5,237.0938,62.5,241.0938,58.5,237.0938"
    style="stroke: #A80036; stroke-width: 1.0;" />
    <line style="stroke: #A80036; stroke-width: 1.0;" x1="56.5"
    x2="234.5" y1="237.0938" y2="237.0938" />
    <text fill="#000000" font-family="sans-serif" font-size="13"
    lengthAdjust="spacingAndGlyphs" textLength="160" x="68.5"
    y="232.0278">return { server cookie}</text>
    <polygon fill="#A80036"
    points="223.5,262.2266,233.5,266.2266,223.5,270.2266,227.5,266.2266"
    style="stroke: #A80036; stroke-width: 1.0;" />
    <line style="stroke: #A80036; stroke-width: 1.0;" x1="51.5"
    x2="229.5" y1="266.2266" y2="266.2266" />
    <text fill="#000000" font-family="sans-serif" font-size="13"
    lengthAdjust="spacingAndGlyphs" textLength="119" x="58.5"
    y="261.1606">send_response(...)</text>
    <path d="M152,279.2266 L152,304.2266 L315,304.2266 L315,289.2266 L305,279.2266 L152,279.2266"
    fill="#FBFB77" filter="url(#futjmrqjruo0u)"
    style="stroke: #A80036; stroke-width: 1.0;" />
    <path d="M305,279.2266 L305,289.2266 L315,289.2266 L305,279.2266"
    fill="#FBFB77" style="stroke: #A80036; stroke-width: 1.0;" />
    <text fill="#000000" font-family="sans-serif" font-size="13"
    lengthAdjust="spacingAndGlyphs" textLength="142" x="158"
    y="296.2935">Check Client Allow-List</text>
    <path d="M139,318.3594 L139,343.3594 L327,343.3594 L327,328.3594 L317,318.3594 L139,318.3594"
    fill="#FBFB77" filter="url(#futjmrqjruo0u)"
    style="stroke: #A80036; stroke-width: 1.0;" />
    <path d="M317,318.3594 L317,328.3594 L327,328.3594 L317,318.3594"
    fill="#FBFB77" style="stroke: #A80036; stroke-width: 1.0;" />
    <text fill="#000000" font-family="sans-serif" font-size="13"
    lengthAdjust="spacingAndGlyphs" textLength="167" x="145"
    y="335.4263">Check Requested Channel</text>
    <path d="M165,357.4922 L165,382.4922 L302,382.4922 L302,367.4922 L292,357.4922 L165,357.4922"
    fill="#FBFB77" filter="url(#futjmrqjruo0u)"
    style="stroke: #A80036; stroke-width: 1.0;" />
    <path d="M292,357.4922 L292,367.4922 L302,367.4922 L292,357.4922"
    fill="#FBFB77" style="stroke: #A80036; stroke-width: 1.0;" />
    <text fill="#000000" font-family="sans-serif" font-size="13"
    lengthAdjust="spacingAndGlyphs" textLength="116" x="171"
    y="374.5591">Check Client Proof</text>
    <path d="M13,398.625 L77,398.625 L77,405.625 L67,415.625 L13,415.625 L13,398.625"
    fill="#EEEEEE" style="stroke: #000000; stroke-width: 1.0;" />
    <rect fill="none" height="85.3984"
    style="stroke: #000000; stroke-width: 2.0;" width="300" x="13"
    y="398.625" />
    <text fill="#000000" font-family="sans-serif" font-size="13"
    font-weight="bold" lengthAdjust="spacingAndGlyphs"
    textLength="19" x="28" y="411.6919">alt</text>
    <text fill="#000000" font-family="sans-serif" font-size="11"
    font-weight="bold" lengthAdjust="spacingAndGlyphs"
    textLength="120" x="92" y="410.8354">[Any Check Failed]</text>
    <polygon fill="#A80036"
    points="62.5,432.8906,52.5,436.8906,62.5,440.8906,58.5,436.8906"
    style="stroke: #A80036; stroke-width: 1.0;" />
    <line style="stroke: #A80036; stroke-width: 1.0;" x1="56.5"
    x2="234.5" y1="436.8906" y2="436.8906" />
    <text fill="#000000" font-family="sans-serif" font-size="13"
    lengthAdjust="spacingAndGlyphs" textLength="31" x="68.5"
    y="431.8247">error</text>
    <path d="M167,449.8906 L167,474.8906 L299,474.8906 L299,459.8906 L289,449.8906 L167,449.8906"
    fill="#FBFB77" filter="url(#futjmrqjruo0u)"
    style="stroke: #A80036; stroke-width: 1.0;" />
    <path d="M289,449.8906 L289,459.8906 L299,459.8906 L289,449.8906"
    fill="#FBFB77" style="stroke: #A80036; stroke-width: 1.0;" />
    <text fill="#000000" font-family="sans-serif" font-size="13"
    lengthAdjust="spacingAndGlyphs" textLength="111" x="173"
    y="466.9575">Close Connection</text>
    <polygon fill="#A80036"
    points="62.5,508.1563,52.5,512.1563,62.5,516.1563,58.5,512.1563"
    style="stroke: #A80036; stroke-width: 1.0;" />
    <line style="stroke: #A80036; stroke-width: 1.0;" x1="56.5"
    x2="234.5" y1="512.1563" y2="512.1563" />
    <text fill="#000000" font-family="sans-serif" font-size="13"
    lengthAdjust="spacingAndGlyphs" textLength="59" x="68.5"
    y="507.0903">return {}</text>
    <path d="M8,525.1563 L8,565.1563 L279,565.1563 L279,535.1563 L269,525.1563 L8,525.1563"
    fill="#FBFB77" filter="url(#futjmrqjruo0u)"
    style="stroke: #A80036; stroke-width: 1.0;" />
    <path d="M269,525.1563 L269,535.1563 L279,535.1563 L269,525.1563"
    fill="#FBFB77" style="stroke: #A80036; stroke-width: 1.0;" />
    <text fill="#000000" font-family="sans-serif" font-size="13"
    lengthAdjust="spacingAndGlyphs" textLength="218" x="28.25"
    y="542.2231">RPC session ends and TCP stream</text>
    <text fill="#000000" font-family="sans-serif" font-size="13"
    lengthAdjust="spacingAndGlyphs" textLength="172" x="28.25"
    y="557.356">control given to application</text>
  </g>
</svg>
