<?xml version="1.0" encoding="UTF-8" standalone="no"?><svg xmlns="http://www.w3.org/2000/svg" xmlns:xlink="http://www.w3.org/1999/xlink" contentScriptType="application/ecmascript" contentStyleType="text/css" height="1318px" preserveAspectRatio="none" style="width:386px;height:1318px;" version="1.1" viewBox="0 0 386 1318" width="386px" zoomAndPan="magnify"><defs><filter height="300%" id="f1oc6bggup6c3d" width="300%" x="-1" y="-1"><feGaussianBlur result="blurOut" stdDeviation="2.0"/><feColorMatrix in="blurOut" result="blurOut2" type="matrix" values="0 0 0 0 0 0 0 0 0 0 0 0 0 0 0 0 0 0 .4 0"/><feOffset dx="4.0" dy="4.0" in="blurOut2" result="blurOut3"/><feBlend in="SourceGraphic" in2="blurOut3" mode="normal"/></filter></defs><g><rect fill="#FFFFFF" filter="url(#f1oc6bggup6c3d)" height="85.3984" style="stroke: #000000; stroke-width: 2.0;" width="269" x="81" y="123.5625"/><rect fill="#FFFFFF" filter="url(#f1oc6bggup6c3d)" height="85.3984" style="stroke: #000000; stroke-width: 2.0;" width="269" x="81" y="262.0938"/><rect fill="#FFFFFF" filter="url(#f1oc6bggup6c3d)" height="85.3984" style="stroke: #000000; stroke-width: 2.0;" width="269" x="81" y="419.7578"/><rect fill="#FFFFFF" filter="url(#f1oc6bggup6c3d)" height="85.3984" style="stroke: #000000; stroke-width: 2.0;" width="269" x="81" y="558.2891"/><rect fill="#FFFFFF" filter="url(#f1oc6bggup6c3d)" height="85.3984" style="stroke: #000000; stroke-width: 2.0;" width="269" x="81" y="715.9531"/><rect fill="#FFFFFF" filter="url(#f1oc6bggup6c3d)" height="46.2656" style="stroke: #000000; stroke-width: 2.0;" width="269" x="81" y="854.4844"/><rect fill="#FFFFFF" filter="url(#f1oc6bggup6c3d)" height="46.2656" style="stroke: #000000; stroke-width: 2.0;" width="269" x="81" y="953.8828"/><rect fill="#FFFFFF" filter="url(#f1oc6bggup6c3d)" height="46.2656" style="stroke: #000000; stroke-width: 2.0;" width="269" x="81" y="1053.2813"/><line style="stroke: #A80036; stroke-width: 1.0; stroke-dasharray: 5.0,5.0;" x1="119" x2="119" y1="38.2969" y2="1278.2109"/><line style="stroke: #A80036; stroke-width: 1.0; stroke-dasharray: 5.0,5.0;" x1="265" x2="265" y1="38.2969" y2="1278.2109"/><rect fill="#FEFECE" filter="url(#f1oc6bggup6c3d)" height="30.2969" style="stroke: #A80036; stroke-width: 1.5;" width="53" x="91" y="3"/><text fill="#000000" font-family="sans-serif" font-size="14" lengthAdjust="spacingAndGlyphs" textLength="39" x="98" y="22.9951">Client</text><rect fill="#FEFECE" filter="url(#f1oc6bggup6c3d)" height="30.2969" style="stroke: #A80036; stroke-width: 1.5;" width="53" x="91" y="1277.2109"/><text fill="#000000" font-family="sans-serif" font-size="14" lengthAdjust="spacingAndGlyphs" textLength="39" x="98" y="1297.2061">Client</text><rect fill="#FEFECE" filter="url(#f1oc6bggup6c3d)" height="30.2969" style="stroke: #A80036; stroke-width: 1.5;" width="145" x="191" y="3"/><text fill="#000000" font-family="sans-serif" font-size="14" lengthAdjust="spacingAndGlyphs" textLength="131" x="198" y="22.9951">Introduction Server</text><rect fill="#FEFECE" filter="url(#f1oc6bggup6c3d)" height="30.2969" style="stroke: #A80036; stroke-width: 1.5;" width="145" x="191" y="1277.2109"/><text fill="#000000" font-family="sans-serif" font-size="14" lengthAdjust="spacingAndGlyphs" textLength="131" x="198" y="1297.2061">Introduction Server</text><polygon fill="#A80036" points="253.5,65.4297,263.5,69.4297,253.5,73.4297,257.5,69.4297" style="stroke: #A80036; stroke-width: 1.0;"/><line style="stroke: #A80036; stroke-width: 1.0;" x1="119.5" x2="259.5" y1="69.4297" y2="69.4297"/><text fill="#000000" font-family="sans-serif" font-size="13" lengthAdjust="spacingAndGlyphs" textLength="122" x="126.5" y="64.3638">begin_handshake()</text><path d="M171,82.4297 L171,107.4297 L355,107.4297 L355,92.4297 L345,82.4297 L171,82.4297 " fill="#FBFB77" filter="url(#f1oc6bggup6c3d)" style="stroke: #A80036; stroke-width: 1.0;"/><path d="M345,82.4297 L345,92.4297 L355,92.4297 L345,82.4297 " fill="#FBFB77" style="stroke: #A80036; stroke-width: 1.0;"/><text fill="#000000" font-family="sans-serif" font-size="13" lengthAdjust="spacingAndGlyphs" textLength="163" x="177" y="99.4966">Evaluate Protocol Version</text><path d="M81,123.5625 L145,123.5625 L145,130.5625 L135,140.5625 L81,140.5625 L81,123.5625 " fill="#EEEEEE" style="stroke: #000000; stroke-width: 1.0;"/><rect fill="none" height="85.3984" style="stroke: #000000; stroke-width: 2.0;" width="269" x="81" y="123.5625"/><text fill="#000000" font-family="sans-serif" font-size="13" font-weight="bold" lengthAdjust="spacingAndGlyphs" textLength="19" x="96" y="136.6294">alt</text><text fill="#000000" font-family="sans-serif" font-size="11" font-weight="bold" lengthAdjust="spacingAndGlyphs" textLength="144" x="160" y="135.7729">[Unsupported Version]</text><polygon fill="#A80036" points="130.5,157.8281,120.5,161.8281,130.5,165.8281,126.5,161.8281" style="stroke: #A80036; stroke-width: 1.0;"/><line style="stroke: #A80036; stroke-width: 1.0;" x1="124.5" x2="264.5" y1="161.8281" y2="161.8281"/><text fill="#000000" font-family="sans-serif" font-size="13" lengthAdjust="spacingAndGlyphs" textLength="31" x="136.5" y="156.7622">error</text><path d="M197,174.8281 L197,199.8281 L329,199.8281 L329,184.8281 L319,174.8281 L197,174.8281 " fill="#FBFB77" filter="url(#f1oc6bggup6c3d)" style="stroke: #A80036; stroke-width: 1.0;"/><path d="M319,174.8281 L319,184.8281 L329,184.8281 L319,174.8281 " fill="#FBFB77" style="stroke: #A80036; stroke-width: 1.0;"/><text fill="#000000" font-family="sans-serif" font-size="13" lengthAdjust="spacingAndGlyphs" textLength="111" x="203" y="191.895">Close Connection</text><path d="M181,220.9609 L181,245.9609 L346,245.9609 L346,230.9609 L336,220.9609 L181,220.9609 " fill="#FBFB77" filter="url(#f1oc6bggup6c3d)" style="stroke: #A80036; stroke-width: 1.0;"/><path d="M336,220.9609 L336,230.9609 L346,230.9609 L336,220.9609 " fill="#FBFB77" style="stroke: #A80036; stroke-width: 1.0;"/><text fill="#000000" font-family="sans-serif" font-size="13" lengthAdjust="spacingAndGlyphs" textLength="144" x="187" y="238.0278">Check Client Block-List</text><path d="M81,262.0938 L145,262.0938 L145,269.0938 L135,279.0938 L81,279.0938 L81,262.0938 " fill="#EEEEEE" style="stroke: #000000; stroke-width: 1.0;"/><rect fill="none" height="85.3984" style="stroke: #000000; stroke-width: 2.0;" width="269" x="81" y="262.0938"/><text fill="#000000" font-family="sans-serif" font-size="13" font-weight="bold" lengthAdjust="spacingAndGlyphs" textLength="19" x="96" y="275.1606">alt</text><text fill="#000000" font-family="sans-serif" font-size="11" font-weight="bold" lengthAdjust="spacingAndGlyphs" textLength="103" x="160" y="274.3042">[Client Blocked]</text><polygon fill="#A80036" points="130.5,296.3594,120.5,300.3594,130.5,304.3594,126.5,300.3594" style="stroke: #A80036; stroke-width: 1.0;"/><line style="stroke: #A80036; stroke-width: 1.0;" x1="124.5" x2="264.5" y1="300.3594" y2="300.3594"/><text fill="#000000" font-family="sans-serif" font-size="13" lengthAdjust="spacingAndGlyphs" textLength="31" x="136.5" y="295.2935">error</text><path d="M197,313.3594 L197,338.3594 L329,338.3594 L329,323.3594 L319,313.3594 L197,313.3594 " fill="#FBFB77" filter="url(#f1oc6bggup6c3d)" style="stroke: #A80036; stroke-width: 1.0;"/><path d="M319,313.3594 L319,323.3594 L329,323.3594 L319,313.3594 " fill="#FBFB77" style="stroke: #A80036; stroke-width: 1.0;"/><text fill="#000000" font-family="sans-serif" font-size="13" lengthAdjust="spacingAndGlyphs" textLength="111" x="203" y="330.4263">Close Connection</text><polygon fill="#A80036" points="130.5,371.625,120.5,375.625,130.5,379.625,126.5,375.625" style="stroke: #A80036; stroke-width: 1.0;"/><line style="stroke: #A80036; stroke-width: 1.0;" x1="124.5" x2="264.5" y1="375.625" y2="375.625"/><text fill="#000000" font-family="sans-serif" font-size="13" lengthAdjust="spacingAndGlyphs" textLength="39" x="136.5" y="370.5591">return</text><polygon fill="#A80036" points="253.5,400.7578,263.5,404.7578,253.5,408.7578,257.5,404.7578" style="stroke: #A80036; stroke-width: 1.0;"/><line style="stroke: #A80036; stroke-width: 1.0;" x1="119.5" x2="259.5" y1="404.7578" y2="404.7578"/><text fill="#000000" font-family="sans-serif" font-size="13" lengthAdjust="spacingAndGlyphs" textLength="122" x="126.5" y="399.6919">send_client_proof()</text><path d="M81,419.7578 L145,419.7578 L145,426.7578 L135,436.7578 L81,436.7578 L81,419.7578 " fill="#EEEEEE" style="stroke: #000000; stroke-width: 1.0;"/><rect fill="none" height="85.3984" style="stroke: #000000; stroke-width: 2.0;" width="269" x="81" y="419.7578"/><text fill="#000000" font-family="sans-serif" font-size="13" font-weight="bold" lengthAdjust="spacingAndGlyphs" textLength="19" x="96" y="432.8247">alt</text><text fill="#000000" font-family="sans-serif" font-size="11" font-weight="bold" lengthAdjust="spacingAndGlyphs" textLength="152" x="160" y="431.9683">[Handshake Not Begun]</text><polygon fill="#A80036" points="130.5,454.0234,120.5,458.0234,130.5,462.0234,126.5,458.0234" style="stroke: #A80036; stroke-width: 1.0;"/><line style="stroke: #A80036; stroke-width: 1.0;" x1="124.5" x2="264.5" y1="458.0234" y2="458.0234"/><text fill="#000000" font-family="sans-serif" font-size="13" lengthAdjust="spacingAndGlyphs" textLength="31" x="136.5" y="452.9575">error</text><path d="M197,471.0234 L197,496.0234 L329,496.0234 L329,481.0234 L319,471.0234 L197,471.0234 " fill="#FBFB77" filter="url(#f1oc6bggup6c3d)" style="stroke: #A80036; stroke-width: 1.0;"/><path d="M319,471.0234 L319,481.0234 L329,481.0234 L319,471.0234 " fill="#FBFB77" style="stroke: #A80036; stroke-width: 1.0;"/><text fill="#000000" font-family="sans-serif" font-size="13" lengthAdjust="spacingAndGlyphs" textLength="111" x="203" y="488.0903">Close Connection</text><path d="M187,517.1563 L187,542.1563 L340,542.1563 L340,527.1563 L330,517.1563 L187,517.1563 " fill="#FBFB77" filter="url(#f1oc6bggup6c3d)" style="stroke: #A80036; stroke-width: 1.0;"/><path d="M330,517.1563 L330,527.1563 L340,527.1563 L330,517.1563 " fill="#FBFB77" style="stroke: #A80036; stroke-width: 1.0;"/><text fill="#000000" font-family="sans-serif" font-size="13" lengthAdjust="spacingAndGlyphs" textLength="132" x="193" y="534.2231">Evaluate Client Proof</text><path d="M81,558.2891 L145,558.2891 L145,565.2891 L135,575.2891 L81,575.2891 L81,558.2891 " fill="#EEEEEE" style="stroke: #000000; stroke-width: 1.0;"/><rect fill="none" height="85.3984" style="stroke: #000000; stroke-width: 2.0;" width="269" x="81" y="558.2891"/><text fill="#000000" font-family="sans-serif" font-size="13" font-weight="bold" lengthAdjust="spacingAndGlyphs" textLength="19" x="96" y="571.356">alt</text><text fill="#000000" font-family="sans-serif" font-size="11" font-weight="bold" lengthAdjust="spacingAndGlyphs" textLength="91" x="160" y="570.4995">[Invalid Proof]</text><polygon fill="#A80036" points="130.5,592.5547,120.5,596.5547,130.5,600.5547,126.5,596.5547" style="stroke: #A80036; stroke-width: 1.0;"/><line style="stroke: #A80036; stroke-width: 1.0;" x1="124.5" x2="264.5" y1="596.5547" y2="596.5547"/><text fill="#000000" font-family="sans-serif" font-size="13" lengthAdjust="spacingAndGlyphs" textLength="31" x="136.5" y="591.4888">error</text><path d="M197,609.5547 L197,634.5547 L329,634.5547 L329,619.5547 L319,609.5547 L197,609.5547 " fill="#FBFB77" filter="url(#f1oc6bggup6c3d)" style="stroke: #A80036; stroke-width: 1.0;"/><path d="M319,609.5547 L319,619.5547 L329,619.5547 L319,609.5547 " fill="#FBFB77" style="stroke: #A80036; stroke-width: 1.0;"/><text fill="#000000" font-family="sans-serif" font-size="13" lengthAdjust="spacingAndGlyphs" textLength="111" x="203" y="626.6216">Close Connection</text><polygon fill="#A80036" points="130.5,667.8203,120.5,671.8203,130.5,675.8203,126.5,671.8203" style="stroke: #A80036; stroke-width: 1.0;"/><line style="stroke: #A80036; stroke-width: 1.0;" x1="124.5" x2="264.5" y1="671.8203" y2="671.8203"/><text fill="#000000" font-family="sans-serif" font-size="13" lengthAdjust="spacingAndGlyphs" textLength="39" x="136.5" y="666.7544">return</text><polygon fill="#A80036" points="253.5,696.9531,263.5,700.9531,253.5,704.9531,257.5,700.9531" style="stroke: #A80036; stroke-width: 1.0;"/><line style="stroke: #A80036; stroke-width: 1.0;" x1="119.5" x2="259.5" y1="700.9531" y2="700.9531"/><text fill="#000000" font-family="sans-serif" font-size="13" lengthAdjust="spacingAndGlyphs" textLength="112" x="126.5" y="695.8872">request_endpoint</text><path d="M81,715.9531 L145,715.9531 L145,722.9531 L135,732.9531 L81,732.9531 L81,715.9531 " fill="#EEEEEE" style="stroke: #000000; stroke-width: 1.0;"/><rect fill="none" height="85.3984" style="stroke: #000000; stroke-width: 2.0;" width="269" x="81" y="715.9531"/><text fill="#000000" font-family="sans-serif" font-size="13" font-weight="bold" lengthAdjust="spacingAndGlyphs" textLength="19" x="96" y="729.02">alt</text><text fill="#000000" font-family="sans-serif" font-size="11" font-weight="bold" lengthAdjust="spacingAndGlyphs" textLength="168" x="160" y="728.1636">[Client Not Authenticated]</text><polygon fill="#A80036" points="130.5,750.2188,120.5,754.2188,130.5,758.2188,126.5,754.2188" style="stroke: #A80036; stroke-width: 1.0;"/><line style="stroke: #A80036; stroke-width: 1.0;" x1="124.5" x2="264.5" y1="754.2188" y2="754.2188"/><text fill="#000000" font-family="sans-serif" font-size="13" lengthAdjust="spacingAndGlyphs" textLength="31" x="136.5" y="749.1528">error</text><path d="M197,767.2188 L197,792.2188 L329,792.2188 L329,777.2188 L319,767.2188 L197,767.2188 " fill="#FBFB77" filter="url(#f1oc6bggup6c3d)" style="stroke: #A80036; stroke-width: 1.0;"/><path d="M319,767.2188 L319,777.2188 L329,777.2188 L319,767.2188 " fill="#FBFB77" style="stroke: #A80036; stroke-width: 1.0;"/><text fill="#000000" font-family="sans-serif" font-size="13" lengthAdjust="spacingAndGlyphs" textLength="111" x="203" y="784.2856">Close Connection</text><path d="M195,813.3516 L195,838.3516 L331,838.3516 L331,823.3516 L321,813.3516 L195,813.3516 " fill="#FBFB77" filter="url(#f1oc6bggup6c3d)" style="stroke: #A80036; stroke-width: 1.0;"/><path d="M321,813.3516 L321,823.3516 L331,823.3516 L321,813.3516 " fill="#FBFB77" style="stroke: #A80036; stroke-width: 1.0;"/><text fill="#000000" font-family="sans-serif" font-size="13" lengthAdjust="spacingAndGlyphs" textLength="115" x="201" y="830.4185">Evaluate Endpoint</text><path d="M81,854.4844 L145,854.4844 L145,861.4844 L135,871.4844 L81,871.4844 L81,854.4844 " fill="#EEEEEE" style="stroke: #000000; stroke-width: 1.0;"/><rect fill="none" height="46.2656" style="stroke: #000000; stroke-width: 2.0;" width="269" x="81" y="854.4844"/><text fill="#000000" font-family="sans-serif" font-size="13" font-weight="bold" lengthAdjust="spacingAndGlyphs" textLength="19" x="96" y="867.5513">alt</text><text fill="#000000" font-family="sans-serif" font-size="11" font-weight="bold" lengthAdjust="spacingAndGlyphs" textLength="114" x="160" y="866.6948">[Invalid Endpoint]</text><polygon fill="#A80036" points="130.5,888.75,120.5,892.75,130.5,896.75,126.5,892.75" style="stroke: #A80036; stroke-width: 1.0;"/><line style="stroke: #A80036; stroke-width: 1.0;" x1="124.5" x2="264.5" y1="892.75" y2="892.75"/><text fill="#000000" font-family="sans-serif" font-size="13" lengthAdjust="spacingAndGlyphs" textLength="39" x="136.5" y="887.6841">return</text><path d="M190,912.75 L190,937.75 L336,937.75 L336,922.75 L326,912.75 L190,912.75 " fill="#FBFB77" filter="url(#f1oc6bggup6c3d)" style="stroke: #A80036; stroke-width: 1.0;"/><path d="M326,912.75 L326,922.75 L336,922.75 L326,912.75 " fill="#FBFB77" style="stroke: #A80036; stroke-width: 1.0;"/><text fill="#000000" font-family="sans-serif" font-size="13" lengthAdjust="spacingAndGlyphs" textLength="125" x="196" y="929.8169">Evaluate Friend-List</text><path d="M81,953.8828 L145,953.8828 L145,960.8828 L135,970.8828 L81,970.8828 L81,953.8828 " fill="#EEEEEE" style="stroke: #000000; stroke-width: 1.0;"/><rect fill="none" height="46.2656" style="stroke: #000000; stroke-width: 2.0;" width="269" x="81" y="953.8828"/><text fill="#000000" font-family="sans-serif" font-size="13" font-weight="bold" lengthAdjust="spacingAndGlyphs" textLength="19" x="96" y="966.9497">alt</text><text fill="#000000" font-family="sans-serif" font-size="11" font-weight="bold" lengthAdjust="spacingAndGlyphs" textLength="106" x="160" y="966.0933">[Existing Friend]</text><polygon fill="#A80036" points="130.5,988.1484,120.5,992.1484,130.5,996.1484,126.5,992.1484" style="stroke: #A80036; stroke-width: 1.0;"/><line style="stroke: #A80036; stroke-width: 1.0;" x1="124.5" x2="264.5" y1="992.1484" y2="992.1484"/><text fill="#000000" font-family="sans-serif" font-size="13" lengthAdjust="spacingAndGlyphs" textLength="39" x="136.5" y="987.0825">return</text><path d="M8,1012.1484 L8,1037.1484 L374,1037.1484 L374,1022.1484 L364,1012.1484 L8,1012.1484 " fill="#FBFB77" filter="url(#f1oc6bggup6c3d)" style="stroke: #A80036; stroke-width: 1.0;"/><path d="M364,1012.1484 L364,1022.1484 L374,1022.1484 L364,1012.1484 " fill="#FBFB77" style="stroke: #A80036; stroke-width: 1.0;"/><text fill="#000000" font-family="sans-serif" font-size="13" lengthAdjust="spacingAndGlyphs" textLength="345" x="14" y="1029.2153">Some time may pass as the Server considers request</text><path d="M81,1053.2813 L145,1053.2813 L145,1060.2813 L135,1070.2813 L81,1070.2813 L81,1053.2813 " fill="#EEEEEE" style="stroke: #000000; stroke-width: 1.0;"/><rect fill="none" height="46.2656" style="stroke: #000000; stroke-width: 2.0;" width="269" x="81" y="1053.2813"/><text fill="#000000" font-family="sans-serif" font-size="13" font-weight="bold" lengthAdjust="spacingAndGlyphs" textLength="19" x="96" y="1066.3481">alt</text><text fill="#000000" font-family="sans-serif" font-size="11" font-weight="bold" lengthAdjust="spacingAndGlyphs" textLength="158" x="160" y="1065.4917">[Server Rejects Request]</text><polygon fill="#A80036" points="130.5,1087.5469,120.5,1091.5469,130.5,1095.5469,126.5,1091.5469" style="stroke: #A80036; stroke-width: 1.0;"/><line style="stroke: #A80036; stroke-width: 1.0;" x1="124.5" x2="264.5" y1="1091.5469" y2="1091.5469"/><text fill="#000000" font-family="sans-serif" font-size="13" lengthAdjust="spacingAndGlyphs" textLength="31" x="136.5" y="1086.481">error</text><path d="M161,1111.5469 L161,1136.5469 L366,1136.5469 L366,1121.5469 L356,1111.5469 L161,1111.5469 " fill="#FBFB77" filter="url(#f1oc6bggup6c3d)" style="stroke: #A80036; stroke-width: 1.0;"/><path d="M356,1111.5469 L356,1121.5469 L366,1121.5469 L356,1111.5469 " fill="#FBFB77" style="stroke: #A80036; stroke-width: 1.0;"/><text fill="#000000" font-family="sans-serif" font-size="13" lengthAdjust="spacingAndGlyphs" textLength="184" x="167" y="1128.6138">Adds the Client to Friend-List</text><polygon fill="#A80036" points="130.5,1162.8125,120.5,1166.8125,130.5,1170.8125,126.5,1166.8125" style="stroke: #A80036; stroke-width: 1.0;"/><line style="stroke: #A80036; stroke-width: 1.0;" x1="124.5" x2="264.5" y1="1166.8125" y2="1166.8125"/><text fill="#000000" font-family="sans-serif" font-size="13" lengthAdjust="spacingAndGlyphs" textLength="39" x="136.5" y="1161.7466">return</text><path d="M158,1179.8125 L158,1219.8125 L368,1219.8125 L368,1189.8125 L358,1179.8125 L158,1179.8125 " fill="#FBFB77" filter="url(#f1oc6bggup6c3d)" style="stroke: #A80036; stroke-width: 1.0;"/><path d="M358,1179.8125 L358,1189.8125 L368,1189.8125 L358,1179.8125 " fill="#FBFB77" style="stroke: #A80036; stroke-width: 1.0;"/><text fill="#000000" font-family="sans-serif" font-size="13" lengthAdjust="spacingAndGlyphs" textLength="187" x="164" y="1196.8794">Maintains connection to allow</text><text fill="#000000" font-family="sans-serif" font-size="13" lengthAdjust="spacingAndGlyphs" textLength="189" x="164" y="1212.0122">client to make more requests</text><path d="M51,1234.0781 L51,1259.0781 L183,1259.0781 L183,1244.0781 L173,1234.0781 L51,1234.0781 " fill="#FBFB77" filter="url(#f1oc6bggup6c3d)" style="stroke: #A80036; stroke-width: 1.0;"/><path d="M173,1234.0781 L173,1244.0781 L183,1244.0781 L173,1234.0781 " fill="#FBFB77" style="stroke: #A80036; stroke-width: 1.0;"/><text fill="#000000" font-family="sans-serif" font-size="13" lengthAdjust="spacingAndGlyphs" textLength="111" x="57" y="1251.145">Close Connection</text><!--
@startuml
participant Client
participant "Introduction Server" as Server

Client->Server: begin_handshake()

    note over Server: Evaluate Protocol Version

    alt Unsupported Version
        Client<-Server: error
        note over Server: Close Connection
    end

    note over Server: Check Client Block-List

    alt Client Blocked
        Client<-Server: error
        note over Server: Close Connection
    end

Client<-Server: return

Client->Server: send_client_proof()

    alt Handshake Not Begun
        Client<-Server: error
        note over Server: Close Connection
    end

    note over Server: Evaluate Client Proof

    alt Invalid Proof
        Client<-Server: error
        note over Server: Close Connection
    end

Server->Client: return

Client->Server: request_endpoint

    alt Client Not Authenticated
        Client<-Server: error
        note over Server: Close Connection
    end

    note over Server: Evaluate Endpoint
    alt Invalid Endpoint
        Client<-Server: return
    end

    note over Server: Evaluate Friend-List
    alt Existing Friend
        Client<-Server: return
    end

    note over Client, Server: Some time may pass as the Server considers request

    alt Server Rejects Request
        Client<-Server: error
    end

    note over Server: Adds the Client to Friend-List

    Client<-Server: return

    note over Server
        Maintains connection to allow
        client to make more requests
    endnote

    note over Client: Close Connection
@enduml

PlantUML version 1.2018.13(Mon Nov 26 18:11:51 CET 2018)
(GPL source distribution)
Java Runtime: OpenJDK Runtime Environment
JVM: OpenJDK 64-Bit Server VM
Java Version: 11.0.11+9-Ubuntu-0ubuntu2.20.04
Operating System: Linux
OS Version: 5.11.0-27-generic
Default Encoding: UTF-8
Language: en
Country: US
--></g></svg>